<?xml version="1.0" encoding="UTF-8" standalone="no"?><!DOCTYPE svg PUBLIC "-//W3C//DTD SVG 1.1//EN" "http://www.w3.org/Graphics/SVG/1.1/DTD/svg11.dtd"><svg width="100%" height="100%" viewBox="0 0 448 512" version="1.1" xmlns="http://www.w3.org/2000/svg" xmlns:xlink="http://www.w3.org/1999/xlink" xml:space="preserve" xmlns:serif="http://www.serif.com/" style="fill-rule:evenodd;clip-rule:evenodd;stroke-linejoin:round;stroke-miterlimit:2;"><path d="M186.5,293c0,19.3 -14,25.4 -31.2,25.4l-45.1,0l0,-52.9l46,0c18.6,0.1 30.3,7.8 30.3,27.5Zm-7.7,-82.3c0,-17.7 -13.7,-21.9 -28.9,-21.9l-39.6,0l0,44.8l42.7,0c15.1,0 25.8,-6.6 25.8,-22.9Zm132.3,23.2c-18.3,0 -30.5,11.4 -31.7,29.7l62.2,0c-1.7,-18.5 -11.3,-29.7 -30.5,-29.7Zm136.9,-153.9l0,352c0,26.5 -21.5,48 -48,48l-352,0c-26.5,0 -48,-21.5 -48,-48l0,-352c0,-26.5 21.5,-48 48,-48l352,0c26.5,0 48,21.5 48,48Zm-176.3,105l77.8,0l0,-18.9l-77.8,0l0,18.9Zm-43,110.3c0,-24.1 -11.4,-44.9 -35,-51.6c17.2,-8.2 26.2,-17.7 26.2,-37c0,-38.2 -28.5,-47.5 -61.4,-47.5l-90.5,0l0,192l93.1,0c34.9,-0.2 67.6,-16.9 67.6,-55.9Zm151.3,-14.8c0,-41.1 -24.1,-75.4 -67.6,-75.4c-42.4,0 -71.1,31.8 -71.1,73.6c0,43.3 27.3,73 71.1,73c33.2,0 54.7,-14.9 65.1,-46.8l-33.7,0c-3.7,11.9 -18.6,18.1 -30.2,18.1c-22.4,0 -34.1,-13.1 -34.1,-35.3l100.2,0c0.1,-2.3 0.3,-4.8 0.3,-7.2Z" style="fill:#fff;fill-rule:nonzero;"/></svg>