<?xml version="1.0" encoding="UTF-8" standalone="no"?><!DOCTYPE svg PUBLIC "-//W3C//DTD SVG 1.1//EN" "http://www.w3.org/Graphics/SVG/1.1/DTD/svg11.dtd"><svg width="100%" height="100%" viewBox="0 0 448 512" version="1.1" xmlns="http://www.w3.org/2000/svg" xmlns:xlink="http://www.w3.org/1999/xlink" xml:space="preserve" xmlns:serif="http://www.serif.com/" style="fill-rule:evenodd;clip-rule:evenodd;stroke-linejoin:round;stroke-miterlimit:2;"><path d="M400,32l-352,0c-26.332,0 -48,21.668 -48,48l0,352c0,26.332 21.668,48 48,48l137.25,0l0,-152.31l-63,0l0,-71.69l63,0l0,-54.64c0,-62.15 37,-96.48 93.67,-96.48c27.14,0 55.52,4.84 55.52,4.84l0,61l-31.27,0c-30.81,0 -40.42,19.12 -40.42,38.73l0,46.55l68.78,0l-11,71.69l-57.78,0l0,152.31l137.25,0c26.332,0 48,-21.668 48,-48l0,-352c0,-26.332 -21.668,-48 -48,-48Z" style="fill:#fff;fill-rule:nonzero;"/></svg>