<?xml version="1.0" encoding="UTF-8" standalone="no"?><!DOCTYPE svg PUBLIC "-//W3C//DTD SVG 1.1//EN" "http://www.w3.org/Graphics/SVG/1.1/DTD/svg11.dtd"><svg width="100%" height="100%" viewBox="0 0 576 512" version="1.1" xmlns="http://www.w3.org/2000/svg" xmlns:xlink="http://www.w3.org/1999/xlink" xml:space="preserve" xmlns:serif="http://www.serif.com/" style="fill-rule:evenodd;clip-rule:evenodd;stroke-linejoin:round;stroke-miterlimit:2;"><path d="M569.517,440.013c18.458,31.994 -4.711,71.987 -41.577,71.987l-479.886,0c-36.937,0 -59.999,-40.055 -41.577,-71.987l239.946,-416.028c18.467,-32.009 64.72,-31.951 83.154,0l239.94,416.028Zm-281.517,-86.013c-25.405,0 -46,20.595 -46,46c0,25.405 20.595,46 46,46c25.405,0 46,-20.595 46,-46c0,-25.405 -20.595,-46 -46,-46Zm-43.673,-165.346l7.418,136c0.347,6.364 5.609,11.346 11.982,11.346l48.546,0c6.373,0 11.635,-4.982 11.982,-11.346l7.418,-136c0.375,-6.874 -5.098,-12.654 -11.982,-12.654l-63.383,0c-6.884,0 -12.356,5.78 -11.981,12.654Z" style="fill:#f00;fill-rule:nonzero;"/></svg>