<svg id="eo9l35kv9zom1" xmlns="http://www.w3.org/2000/svg" xmlns:xlink="http://www.w3.org/1999/xlink" viewBox="0 0 397.040000 284.800000" shape-rendering="geometricPrecision" text-rendering="geometricPrecision" width="397.040000" height="284.800000"><style><![CDATA[#eo9l35kv9zom7_to {animation: eo9l35kv9zom7_to__to 3000ms linear infinite normal forwards}@keyframes eo9l35kv9zom7_to__to { 0% {transform: translate(-0.719340px,66.400000px)} 53.333333% {transform: translate(-0.719340px,66.400000px)} 100% {transform: translate(0px,0px)} }#eo9l35kv9zom7 {animation: eo9l35kv9zom7_s_o 3000ms linear infinite normal forwards}@keyframes eo9l35kv9zom7_s_o { 0% {stroke-opacity: 0} 76.666667% {stroke-opacity: 0} 100% {stroke-opacity: 1} }#eo9l35kv9zom90_to {animation: eo9l35kv9zom90_to__to 3000ms linear infinite normal forwards}@keyframes eo9l35kv9zom90_to__to { 0% {transform: translate(0px,0px)} 46.666667% {transform: translate(0.635006px,49.184998px)} 100% {transform: translate(0.635006px,5.362898px)} }#eo9l35kv9zom106_to {animation: eo9l35kv9zom106_to__to 3000ms linear infinite normal forwards}@keyframes eo9l35kv9zom106_to__to { 0% {transform: translate(0px,0px)} 50% {transform: translate(-25.130000px,6.555000px)} 100% {transform: translate(-1.130000px,2.610000px)} }#eo9l35kv9zom107_to {animation: eo9l35kv9zom107_to__to 3000ms linear infinite normal forwards}@keyframes eo9l35kv9zom107_to__to { 0% {transform: translate(84.670000px,0.451812px)} 50% {transform: translate(53.820000px,-16.087816px)} 100% {transform: translate(0px,0px)} }]]></style><g id="eo9l35kv9zom2"><g id="eo9l35kv9zom3"><path id="eo9l35kv9zom4" d="M82.400000,239.090000L285.210000,239.090000L285.210000,245.160000C285.210000,248.984422,283.690754,252.652205,280.986480,255.356480C278.282205,258.060754,274.614422,259.580000,270.790000,259.580000L96.790000,259.580000C88.837772,259.563456,82.399983,253.112245,82.400000,245.160000L82.400000,239.090000Z" fill="none" stroke="rgb(0,138,254)" stroke-width="1.780000" stroke-miterlimit="10"/><path id="eo9l35kv9zom5" d="M94.900000,119.310000L272.900000,119.310000C280.333753,119.310000,286.360000,125.336247,286.360000,132.770000L286.360000,239.050000L81.430000,239.050000L81.430000,132.770000C81.429999,129.198453,82.849475,125.773333,85.375878,123.248805C87.902280,120.724278,91.328454,119.307347,94.900000,119.310000Z" fill="rgb(0,99,199)" stroke="none" stroke-width="1"/><rect id="eo9l35kv9zom6" width="189.540000" height="103.730000" rx="0" ry="0" transform="matrix(1 0 0 1 89.76000000000001 127.92000000000000)" fill="rgb(255,255,255)" stroke="none" stroke-width="1"/><g id="eo9l35kv9zom7_to" transform="translate(-0.719340,66.400000)"><rect id="eo9l35kv9zom7" width="90.530000" height="60.048500" rx="4.120000" ry="0" transform="translate(173.200000,137.730000)" fill="none" fill-opacity="0" stroke="rgb(229,229,229)" stroke-width="1.340000" stroke-opacity="0" stroke-miterlimit="10"/></g><path id="eo9l35kv9zom8" d="M188.380000,248.420000C188.380000,250.949464,186.329464,253,183.800000,253C181.270536,253,179.220000,250.949464,179.220000,248.420000C179.220000,245.890536,181.270536,243.840000,183.800000,243.840000C185.014692,243.840000,186.179632,244.322534,187.038549,245.181451C187.897466,246.040368,188.380000,247.205308,188.380000,248.420000Z" fill="rgb(0,138,254)" stroke="none" stroke-width="1"/><rect id="eo9l35kv9zom9" width="56.750000" height="39.700000" rx="4.720000" ry="0" transform="matrix(1 0 0 1 101.12000000000000 179.44999999999999)" fill="none" stroke="rgb(229,229,229)" stroke-width="1.180000" stroke-miterlimit="10"/><rect id="eo9l35kv9zom10" width="56.750000" height="18.570000" rx="4.720000" ry="0" transform="matrix(1 0 0 1 101.12000000000000 153.66000000000000)" fill="none" stroke="rgb(229,229,229)" stroke-width="1.340000" stroke-miterlimit="10"/><line id="eo9l35kv9zom11" x1="173.200000" y1="204.570000" x2="253.990000" y2="204.570000" fill="none" stroke="rgb(229,229,229)" stroke-width="1.340000" stroke-linecap="round" stroke-linejoin="round"/><line id="eo9l35kv9zom12" x1="173.200000" y1="211.630000" x2="202.140000" y2="211.630000" fill="none" stroke="rgb(229,229,229)" stroke-width="1.340000" stroke-linecap="round" stroke-linejoin="round"/><line id="eo9l35kv9zom13" x1="210.320000" y1="211.630000" x2="226.910000" y2="211.630000" fill="none" stroke="rgb(229,229,229)" stroke-width="1.340000" stroke-linecap="round" stroke-linejoin="round"/><line id="eo9l35kv9zom14" x1="173.200000" y1="219.150000" x2="183.800000" y2="219.150000" fill="none" stroke="rgb(229,229,229)" stroke-width="1.340000" stroke-linecap="round" stroke-linejoin="round"/><line id="eo9l35kv9zom15" x1="191.330000" y1="219.150000" x2="253.990000" y2="219.150000" fill="none" stroke="rgb(229,229,229)" stroke-width="1.340000" stroke-linecap="round" stroke-linejoin="round"/><path id="eo9l35kv9zom16" d="M109.520000,143.080000C109.520000,144.321699,108.772019,145.441132,107.624838,145.916310C106.477658,146.391488,105.157196,146.128832,104.279182,145.250818C103.401168,144.372804,103.138512,143.052342,103.613690,141.905162C104.088868,140.757981,105.208301,140.010000,106.450000,140.010000C108.145514,140.010000,109.520000,141.384486,109.520000,143.080000Z" fill="rgb(255,222,86)" stroke="none" stroke-width="1"/><path id="eo9l35kv9zom17" d="M119.310000,143.080000C119.310000,144.321699,118.562019,145.441132,117.414838,145.916310C116.267658,146.391488,114.947196,146.128832,114.069182,145.250818C113.191168,144.372804,112.928512,143.052342,113.403690,141.905162C113.878868,140.757981,114.998301,140.010000,116.240000,140.010000C117.935514,140.010000,119.310000,141.384486,119.310000,143.080000Z" fill="rgb(148,193,255)" stroke="none" stroke-width="1"/><path id="eo9l35kv9zom18" d="M129.110000,143.080000C129.104355,144.768963,127.735485,146.136157,126.046516,146.139732C124.357547,146.143308,122.982901,144.781922,122.970105,143.092998C122.957310,141.404073,124.311171,140.022016,126,140C126.822052,139.991993,127.613191,140.312953,128.197308,140.891436C128.781425,141.469918,129.110039,142.257909,129.110000,143.080000Z" fill="rgb(229,229,229)" stroke="none" stroke-width="1"/><rect id="eo9l35kv9zom19" width="41.620000" height="17.930000" rx="0" ry="0" transform="matrix(1 0 0 1 163.38999999999999 259.57999999999998)" fill="none" stroke="rgb(0,138,254)" stroke-width="1.780000" stroke-miterlimit="10"/><path id="eo9l35kv9zom20" d="M154.840000,277.510000L213.570000,277.510000C216.270672,277.510000,218.460000,279.699328,218.460000,282.400000L218.460000,283.910000L149.950000,283.910000L149.950000,282.400000C149.950000,281.103091,150.465195,279.859301,151.382248,278.942248C152.299301,278.025195,153.543091,277.510000,154.840000,277.510000Z" fill="none" stroke="rgb(0,138,254)" stroke-width="1.780000" stroke-miterlimit="10"/><rect id="eo9l35kv9zom21" width="1.140000" height="26.700000" rx="0" ry="0" transform="matrix(1 0 0 1 335.44999999999999 0)" fill="rgb(255,255,255)" stroke="none" stroke-width="1"/><polygon id="eo9l35kv9zom22" points="373.610000,38.030000 335.930000,11.520000 260.690000,37.880000 259.230000,37.180000 336.110000,10.250000 374.270000,37.100000 373.610000,38.030000" fill="rgb(255,255,255)" stroke="none" stroke-width="1"/><path id="eo9l35kv9zom23" d="M295.700000,146.150090L254.140000,47.885112L212.570000,146.150090L211.800000,143.997453L253.750000,44.801605C253.840580,44.565681,253.983328,44.426662,254.135000,44.426662C254.286672,44.426662,254.429420,44.565681,254.520000,44.801605L296.520000,143.997453Z" fill="rgb(255,255,255)" stroke="none" stroke-width="1"/><path id="eo9l35kv9zom24" d="M347.450000,284.530000L324.580000,284.530000L324.580000,44.420000L347.450000,44.420000ZM325.730000,283.380000L346.310000,283.380000L346.310000,45.570000L325.730000,45.570000Z" fill="rgb(0,138,254)" stroke="none" stroke-width="1"/><path id="eo9l35kv9zom25" d="M347.680000,284.760000L324.350000,284.760000L324.350000,44.190000L347.680000,44.190000ZM324.810000,284.300000L347.220000,284.300000L347.220000,44.650000L324.810000,44.650000ZM346.540000,283.620000L325.540000,283.620000L325.540000,45.340000L346.540000,45.340000ZM326,283.160000L346.120000,283.160000L346.120000,45.800000L326,45.800000Z" fill="rgb(0,138,254)" stroke="none" stroke-width="1"/><rect id="eo9l35kv9zom26" width="1.140000" height="39.490000" rx="0" ry="0" transform="matrix(0.83504000000000 -0.55018900000000 0.55018900000000 0.83504000000000 324.66905686000001 45.28366955000001)" fill="rgb(0,138,254)" stroke="none" stroke-width="1"/><path id="eo9l35kv9zom27" d="M346.340000,78.600000L346.210000,78.410000L324.360000,45.240000L325.700000,44.360000L325.830000,44.550000L347.680000,77.720000ZM325,45.370000L346.470000,78L347.040000,77.620000L325.570000,45Z" fill="rgb(0,138,254)" stroke="none" stroke-width="1"/><rect id="eo9l35kv9zom28" width="40.320000" height="1.140000" rx="0" ry="0" transform="matrix(0.53935900000000 -0.84207600000000 0.84207600000000 0.53935900000000 324.68382090000000 78.66391082999994)" fill="rgb(0,138,254)" stroke="none" stroke-width="1"/><path id="eo9l35kv9zom29" d="M325.710000,79.590000L324.360000,78.730000L324.480000,78.530000L346.330000,44.370000L347.680000,45.230000ZM324.990000,78.590000L325.570000,78.950000L347,45.370000L346.430000,45Z" fill="rgb(0,138,254)" stroke="none" stroke-width="1"/><rect id="eo9l35kv9zom30" width="1.140000" height="39.490000" rx="0" ry="0" transform="matrix(0.83513600000000 -0.55004400000000 0.55004400000000 0.83513600000000 324.69565888000005 78.30910212000002)" fill="rgb(0,138,254)" stroke="none" stroke-width="1"/><path id="eo9l35kv9zom31" d="M346.340000,111.580000L346.210000,111.390000L324.360000,78.220000L325.700000,77.340000L325.830000,77.530000L347.680000,110.700000ZM325,78.350000L346.470000,111L347.040000,110.620000L325.570000,78Z" fill="rgb(0,138,254)" stroke="none" stroke-width="1"/><rect id="eo9l35kv9zom32" width="40.320000" height="1.140000" rx="0" ry="0" transform="matrix(0.53935900000000 -0.84207600000000 0.84207600000000 0.53935900000000 324.68548738000004 111.64197064999993)" fill="rgb(0,138,254)" stroke="none" stroke-width="1"/><path id="eo9l35kv9zom33" d="M325.710000,112.570000L324.360000,111.700000L324.480000,111.510000L346.330000,77.350000L347.680000,78.210000L347.550000,78.400000ZM324.990000,111.570000L325.570000,111.940000L347,78.350000L346.430000,77.980000Z" fill="rgb(0,138,254)" stroke="none" stroke-width="1"/><rect id="eo9l35kv9zom34" width="1.140000" height="39.490000" rx="0" ry="0" transform="matrix(0.84000000000000 -0.55000000000000 0.55000000000000 0.84000000000000 326.31750000000005 111.82210000000002)" fill="rgb(0,138,254)" stroke="none" stroke-width="1"/><path id="eo9l35kv9zom35" d="M346.340000,144.560000L324.340000,111.200000L325.680000,110.320000L325.810000,110.510000L347.660000,143.680000ZM325,111.330000L346.470000,143.920000L347.040000,143.550000L325.570000,111Z" fill="rgb(0,138,254)" stroke="none" stroke-width="1"/><rect id="eo9l35kv9zom36" width="40.320000" height="1.140000" rx="0" ry="0" transform="matrix(0.53921200000000 -0.84217000000000 0.84217000000000 0.53921200000000 324.65427352000006 144.59622412000004)" fill="rgb(0,138,254)" stroke="none" stroke-width="1"/><path id="eo9l35kv9zom37" d="M325.710000,145.540000L324.360000,144.680000L324.480000,144.490000L346.330000,110.320000L347.680000,111.190000ZM324.990000,144.540000L325.570000,144.910000L347,111.330000L346.430000,110.960000Z" fill="rgb(0,138,254)" stroke="none" stroke-width="1"/><rect id="eo9l35kv9zom38" width="1.140000" height="39.490000" rx="0" ry="0" transform="matrix(0.83504000000000 -0.55018900000000 0.55018900000000 0.83504000000000 324.67925463000000 144.20417674999999)" fill="rgb(0,138,254)" stroke="none" stroke-width="1"/><path id="eo9l35kv9zom39" d="M346.340000,177.540000L346.210000,177.340000L324.360000,144.180000L325.700000,143.290000L347.700000,176.660000ZM325,144.310000L346.470000,176.900000L347.040000,176.520000L325.570000,143.930000Z" fill="rgb(0,138,254)" stroke="none" stroke-width="1"/><rect id="eo9l35kv9zom40" width="40.320000" height="1.140000" rx="0" ry="0" transform="matrix(0.53921200000000 -0.84217000000000 0.84217000000000 0.53921200000000 324.65904012000004 177.56943588000004)" fill="rgb(0,138,254)" stroke="none" stroke-width="1"/><path id="eo9l35kv9zom41" d="M325.710000,178.520000L324.360000,177.660000L324.480000,177.460000L346.330000,143.300000L347.680000,144.170000L347.550000,144.360000ZM324.990000,177.520000L325.570000,177.890000L347,144.310000L346.430000,143.940000Z" fill="rgb(0,138,254)" stroke="none" stroke-width="1"/><rect id="eo9l35kv9zom42" width="1.140000" height="39.490000" rx="0" ry="0" transform="matrix(0.83513600000000 -0.55004400000000 0.55004400000000 0.83513600000000 324.68151180000007 177.24910660000006)" fill="rgb(0,138,254)" stroke="none" stroke-width="1"/><path id="eo9l35kv9zom43" d="M346.340000,210.510000L324.340000,177.150000L325.680000,176.270000L325.810000,176.460000L347.660000,209.630000ZM325,177.280000L346.470000,209.880000L347.040000,209.500000L325.570000,176.910000Z" fill="rgb(0,138,254)" stroke="none" stroke-width="1"/><rect id="eo9l35kv9zom44" width="40.320000" height="1.140000" rx="0" ry="0" transform="matrix(0.53921200000000 -0.84217000000000 0.84217000000000 0.53921200000000 324.66380672000008 210.54264764000004)" fill="rgb(0,138,254)" stroke="none" stroke-width="1"/><path id="eo9l35kv9zom45" d="M325.710000,211.500000L324.360000,210.630000L346.360000,176.280000L347.710000,177.140000L347.580000,177.340000ZM324.990000,210.500000L325.570000,210.870000L347,177.280000L346.430000,176.910000Z" fill="rgb(0,138,254)" stroke="none" stroke-width="1"/><rect id="eo9l35kv9zom46" width="1.140000" height="39.490000" rx="0" ry="0" transform="matrix(0.83504000000000 -0.55018900000000 0.55018900000000 0.83504000000000 324.67972107000003 210.16341514999999)" fill="rgb(0,138,254)" stroke="none" stroke-width="1"/><path id="eo9l35kv9zom47" d="M346.340000,243.490000L346.210000,243.300000L324.360000,210.130000L325.700000,209.250000L347.700000,242.610000ZM325,210.260000L346.470000,242.850000L347.040000,242.480000L325.570000,209.890000Z" fill="rgb(0,138,254)" stroke="none" stroke-width="1"/><rect id="eo9l35kv9zom48" width="40.320000" height="1.140000" rx="0" ry="0" transform="matrix(0.53935900000000 -0.84207600000000 0.84207600000000 0.53935900000000 324.67531178000002 243.55342274999998)" fill="rgb(0,138,254)" stroke="none" stroke-width="1"/><path id="eo9l35kv9zom49" d="M325.710000,244.480000L324.360000,243.610000L346.360000,209.260000L347.710000,210.120000L347.580000,210.310000ZM324.990000,243.480000L325.570000,243.850000L347,210.260000L346.430000,209.890000Z" fill="rgb(0,138,254)" stroke="none" stroke-width="1"/><rect id="eo9l35kv9zom50" width="1.140000" height="39.490000" rx="0" ry="0" transform="matrix(0.84000000000000 -0.55000000000000 0.55000000000000 0.84000000000000 326.29800000000000 244.38650000000001)" fill="rgb(0,138,254)" stroke="none" stroke-width="1"/><path id="eo9l35kv9zom51" d="M346.340000,276.470000L346.210000,276.280000L324.360000,243.110000L325.700000,242.230000L325.830000,242.420000L347.680000,275.590000ZM325,243.240000L346.470000,275.830000L347.040000,275.460000L325.570000,242.860000Z" fill="rgb(0,138,254)" stroke="none" stroke-width="1"/><rect id="eo9l35kv9zom52" width="40.320000" height="1.140000" rx="0" ry="0" transform="matrix(0.53935900000000 -0.84207600000000 0.84207600000000 0.53935900000000 324.67697826000000 276.53148256999998)" fill="rgb(0,138,254)" stroke="none" stroke-width="1"/><path id="eo9l35kv9zom53" d="M325.710000,277.450000L324.360000,276.590000L346.360000,242.230000L347.710000,243.100000L347.580000,243.290000ZM324.990000,276.450000L325.570000,276.820000L347,243.240000L346.430000,242.870000Z" fill="rgb(0,138,254)" stroke="none" stroke-width="1"/><path id="eo9l35kv9zom54" d="M368.600000,44.420000L368.600000,53.420000C368.605513,55.498207,370.291785,57.180007,372.370000,57.180000L391.140000,57.180000C393.214310,57.174505,394.894505,55.494310,394.900000,53.420000L394.900000,44.420000Z" fill="rgb(0,138,254)" stroke="none" stroke-width="1"/><line id="eo9l35kv9zom55" x1="240.740000" y1="37.560000" x2="396.810000" y2="37.560000" fill="rgb(0,138,254)" stroke="none" stroke-width="1"/><rect id="eo9l35kv9zom56" width="156.070000" height="1.140000" rx="0" ry="0" transform="matrix(1 0 0 1 240.74000000000001 36.99000000000000)" fill="rgb(0,138,254)" stroke="none" stroke-width="1"/><path id="eo9l35kv9zom57" d="M397,38.370000L240.510000,38.370000L240.510000,36.760000L397,36.760000ZM241,37.910000L396.580000,37.910000L396.580000,37.220000L241,37.220000Z" fill="rgb(0,138,254)" stroke="none" stroke-width="1"/><line id="eo9l35kv9zom58" x1="240.740000" y1="45" x2="396.810000" y2="45" fill="rgb(0,138,254)" stroke="none" stroke-width="1"/><rect id="eo9l35kv9zom59" width="156.070000" height="1.140000" rx="0" ry="0" transform="matrix(1 0 0 1 240.74000000000001 44.42000000000000)" fill="rgb(0,138,254)" stroke="none" stroke-width="1"/><path id="eo9l35kv9zom60" d="M397,45.800000L240.510000,45.800000L240.510000,44.190000L397,44.190000ZM241,45.340000L396.580000,45.340000L396.580000,44.650000L241,44.650000Z" fill="rgb(0,138,254)" stroke="none" stroke-width="1"/><line id="eo9l35kv9zom61" x1="243.410000" y1="37.560000" x2="243.410000" y2="45" fill="rgb(0,138,254)" stroke="none" stroke-width="1"/><rect id="eo9l35kv9zom62" width="0.460000" height="7.430000" rx="0" ry="0" transform="matrix(1 0 0 1 243.18000000000001 37.56000000000000)" fill="rgb(0,138,254)" stroke="none" stroke-width="1"/><rect id="eo9l35kv9zom63" width="1.140000" height="7.430000" rx="0" ry="0" transform="matrix(1 0 0 1 242.83000000000001 37.56000000000000)" fill="rgb(0,138,254)" stroke="none" stroke-width="1"/><path id="eo9l35kv9zom64" d="M244.210000,45.220000L242.600000,45.220000L242.600000,37.330000L244.210000,37.330000ZM243.060000,44.770000L243.750000,44.770000L243.750000,37.770000L243.060000,37.770000Z" fill="rgb(0,138,254)" stroke="none" stroke-width="1"/><line id="eo9l35kv9zom65" x1="268.560000" y1="37.560000" x2="268.560000" y2="45" fill="rgb(0,138,254)" stroke="none" stroke-width="1"/><rect id="eo9l35kv9zom66" width="0.460000" height="7.430000" rx="0" ry="0" transform="matrix(1 0 0 1 268.32999999999998 37.56000000000000)" fill="rgb(0,138,254)" stroke="none" stroke-width="1"/><rect id="eo9l35kv9zom67" width="1.140000" height="7.430000" rx="0" ry="0" transform="matrix(1 0 0 1 267.99000000000001 37.56000000000000)" fill="rgb(0,138,254)" stroke="none" stroke-width="1"/><path id="eo9l35kv9zom68" d="M269.360000,45.220000L267.760000,45.220000L267.760000,37.330000L269.360000,37.330000ZM268.220000,44.770000L268.900000,44.770000L268.900000,37.770000L268.220000,37.770000Z" fill="rgb(0,138,254)" stroke="none" stroke-width="1"/><line id="eo9l35kv9zom69" x1="293.710000" y1="37.560000" x2="293.710000" y2="45" fill="rgb(0,138,254)" stroke="none" stroke-width="1"/><rect id="eo9l35kv9zom70" width="0.460000" height="7.430000" rx="0" ry="0" transform="matrix(1 0 0 1 293.48000000000002 37.56000000000000)" fill="rgb(0,138,254)" stroke="none" stroke-width="1"/><rect id="eo9l35kv9zom71" width="1.140000" height="7.430000" rx="0" ry="0" transform="matrix(1 0 0 1 293.13999999999999 37.56000000000000)" fill="rgb(0,138,254)" stroke="none" stroke-width="1"/><path id="eo9l35kv9zom72" d="M294.520000,45.220000L292.910000,45.220000L292.910000,37.330000L294.520000,37.330000ZM293.370000,44.770000L294.060000,44.770000L294.060000,37.770000L293.370000,37.770000Z" fill="rgb(0,138,254)" stroke="none" stroke-width="1"/><line id="eo9l35kv9zom73" x1="318.870000" y1="37.560000" x2="318.870000" y2="45" fill="rgb(0,138,254)" stroke="none" stroke-width="1"/><rect id="eo9l35kv9zom74" width="0.460000" height="7.430000" rx="0" ry="0" transform="matrix(1 0 0 1 318.63999999999999 37.56000000000000)" fill="rgb(0,138,254)" stroke="none" stroke-width="1"/><rect id="eo9l35kv9zom75" width="1.140000" height="7.430000" rx="0" ry="0" transform="matrix(1 0 0 1 318.30000000000001 37.56000000000000)" fill="rgb(0,138,254)" stroke="none" stroke-width="1"/><path id="eo9l35kv9zom76" d="M319.670000,45.220000L318.070000,45.220000L318.070000,37.330000L319.670000,37.330000ZM318.530000,44.770000L319.210000,44.770000L319.210000,37.770000L318.530000,37.770000Z" fill="rgb(0,138,254)" stroke="none" stroke-width="1"/><line id="eo9l35kv9zom77" x1="344.020000" y1="37.560000" x2="344.020000" y2="45" fill="rgb(0,138,254)" stroke="none" stroke-width="1"/><rect id="eo9l35kv9zom78" width="0.460000" height="7.430000" rx="0" ry="0" transform="matrix(1 0 0 1 343.79000000000002 37.56000000000000)" fill="rgb(0,138,254)" stroke="none" stroke-width="1"/><rect id="eo9l35kv9zom79" width="1.140000" height="7.430000" rx="0" ry="0" transform="matrix(1 0 0 1 343.44999999999999 37.56000000000000)" fill="rgb(0,138,254)" stroke="none" stroke-width="1"/><path id="eo9l35kv9zom80" d="M344.820000,45.220000L343.220000,45.220000L343.220000,37.330000L344.820000,37.330000ZM343.680000,44.770000L344.360000,44.770000L344.360000,37.770000L343.680000,37.770000Z" fill="rgb(0,138,254)" stroke="none" stroke-width="1"/><line id="eo9l35kv9zom81" x1="369.170000" y1="37.560000" x2="369.170000" y2="45" fill="rgb(0,138,254)" stroke="none" stroke-width="1"/><rect id="eo9l35kv9zom82" width="0.460000" height="7.430000" rx="0" ry="0" transform="matrix(1 0 0 1 368.94999999999999 37.56000000000000)" fill="rgb(0,138,254)" stroke="none" stroke-width="1"/><rect id="eo9l35kv9zom83" width="1.140000" height="7.430000" rx="0" ry="0" transform="matrix(1 0 0 1 368.60000000000002 37.56000000000000)" fill="rgb(0,138,254)" stroke="none" stroke-width="1"/><path id="eo9l35kv9zom84" d="M370,45.220000L368.390000,45.220000L368.390000,37.330000L370,37.330000ZM368.850000,44.770000L369.540000,44.770000L369.540000,37.770000L368.850000,37.770000Z" fill="rgb(0,138,254)" stroke="none" stroke-width="1"/><line id="eo9l35kv9zom85" x1="394.330000" y1="37.560000" x2="394.330000" y2="45" fill="rgb(0,138,254)" stroke="none" stroke-width="1"/><rect id="eo9l35kv9zom86" width="0.460000" height="7.430000" rx="0" ry="0" transform="matrix(1 0 0 1 394.10000000000002 37.56000000000000)" fill="rgb(0,138,254)" stroke="none" stroke-width="1"/><rect id="eo9l35kv9zom87" width="1.140000" height="7.430000" rx="0" ry="0" transform="matrix(1 0 0 1 393.75999999999999 37.56000000000000)" fill="rgb(0,138,254)" stroke="none" stroke-width="1"/><path id="eo9l35kv9zom88" d="M395.130000,45.220000L393.530000,45.220000L393.530000,37.330000L395.130000,37.330000ZM394,44.770000L394.680000,44.770000L394.680000,37.770000L394,37.770000Z" fill="rgb(0,138,254)" stroke="none" stroke-width="1"/><path id="eo9l35kv9zom89" d="M353,36.760000L319.250000,36.760000L319.250000,29.230000C319.250000,28.407829,319.576606,27.619332,320.157969,27.037969C320.739332,26.456606,321.527829,26.130000,322.350000,26.130000L349.880000,26.130000C350.702171,26.130000,351.490668,26.456606,352.072031,27.037969C352.653394,27.619332,352.980000,28.407829,352.980000,29.230000Z" fill="rgb(45,97,187)" stroke="none" stroke-width="1"/><g id="eo9l35kv9zom90_to" transform="translate(0,0)"><g id="eo9l35kv9zom90" transform="translate(0,0)"><rect id="eo9l35kv9zom91" width="93.250000" height="61.230000" rx="4.120000" ry="0" transform="matrix(1 0 0 1 207.00000000000003 92.43000000000001)" fill="rgb(45,97,187)" stroke="none" stroke-width="1"/><path id="eo9l35kv9zom92" d="M261.180000,138.820000L244.810000,138.820000C244.133417,138.760717,243.614346,138.194175,243.614346,137.515000C243.614346,136.835825,244.133417,136.269283,244.810000,136.210000L261.180000,136.210000C261.856583,136.269283,262.375654,136.835825,262.375654,137.515000C262.375654,138.194175,261.856583,138.760717,261.180000,138.820000Z" fill="rgb(255,255,255)" stroke="none" stroke-width="1"/><path id="eo9l35kv9zom93" d="M237.420000,138.820000L221.050000,138.820000C220.373417,138.760717,219.854346,138.194175,219.854346,137.515000C219.854346,136.835825,220.373417,136.269283,221.050000,136.210000L237.420000,136.210000C238.096583,136.269283,238.615654,136.835825,238.615654,137.515000C238.615654,138.194175,238.096583,138.760717,237.420000,138.820000Z" fill="rgb(255,255,255)" stroke="none" stroke-width="1"/><path id="eo9l35kv9zom94" d="M283.167596,128.400000L221.035774,128.400000C220.367241,128.340717,219.854346,127.774175,219.854346,127.095000C219.854346,126.415825,220.367241,125.849283,221.035774,125.790000L283.167596,125.790000C283.655229,125.746758,284.125252,125.985603,284.382248,126.407232C284.639243,126.828860,284.639243,127.361140,284.382248,127.782768C284.125252,128.204397,283.655229,128.443242,283.167596,128.400000Z" fill="rgb(255,222,86)" stroke="none" stroke-width="1"/><path id="eo9l35kv9zom95" d="M283.167596,118L221.035774,118C220.367241,117.940717,219.854346,117.374175,219.854346,116.695000C219.854346,116.015825,220.367241,115.449283,221.035774,115.390000L283.167596,115.390000C283.655229,115.346758,284.125252,115.585603,284.382248,116.007232C284.639243,116.428860,284.639243,116.961140,284.382248,117.382768C284.125252,117.804397,283.655229,118.043242,283.167596,118Z" fill="rgb(255,255,255)" stroke="none" stroke-width="1"/><path id="eo9l35kv9zom96" d="M276.762070,108.138596L222.217270,108.138596C220.880166,108.102740,219.854346,107.760081,219.854346,107.349298C219.854346,106.938515,220.880166,106.595856,222.217270,106.560000L276.762070,106.560000C278.099174,106.595856,279.124994,106.938515,279.124994,107.349298C279.124994,107.760081,278.099174,108.102740,276.762070,108.138596Z" fill="rgb(255,222,86)" stroke="none" stroke-width="1"/></g></g><rect id="eo9l35kv9zom97" width="87.970000" height="47.560000" rx="3.780000" ry="0" transform="matrix(-1 0 -0 -1 335.10000000000002 283.65000000000003)" fill="rgb(0,138,254)" stroke="none" stroke-width="1"/><rect id="eo9l35kv9zom98" width="34.050000" height="29.180000" rx="3.950000" ry="0" transform="matrix(1 0 0 1 293.85000000000002 207.19000000000000)" fill="rgb(255,255,255)" stroke="none" stroke-width="1"/><path id="eo9l35kv9zom99" d="M312.920000,217.820000C314.259905,219.264183,314.597750,221.373376,313.775958,223.163814C312.954166,224.954253,311.134626,226.073229,309.166003,225.998833C307.197380,225.924438,305.467483,224.671326,304.783166,222.823970C304.098849,220.976615,304.594919,218.898937,306.040000,217.560000C308.014059,215.738431,311.089052,215.854637,312.920000,217.820000Z" fill="none" stroke="rgb(0,138,254)" stroke-width="1.780000" stroke-linecap="round" stroke-linejoin="round"/><line id="eo9l35kv9zom100" x1="313.940000" y1="222.760000" x2="319.810000" y2="225.250000" fill="none" stroke="rgb(0,138,254)" stroke-width="1.780000" stroke-linecap="round" stroke-linejoin="round"/><path id="eo9l35kv9zom101" d="M316.650000,253L266.080000,253C265.527715,253,265.080000,252.552285,265.080000,252C265.080000,251.447715,265.527715,251,266.080000,251L316.650000,251C317.202285,251,317.650000,251.447715,317.650000,252C317.650000,252.552285,317.202285,253,316.650000,253Z" fill="rgb(255,255,255)" stroke="none" stroke-width="1"/><path id="eo9l35kv9zom102" d="M316.650000,262.090000L266.080000,262.090000C265.527715,262.090000,265.080000,261.642285,265.080000,261.090000C265.080000,260.537715,265.527715,260.090000,266.080000,260.090000L316.650000,260.090000C317.202285,260.090000,317.650000,260.537715,317.650000,261.090000C317.650000,261.642285,317.202285,262.090000,316.650000,262.090000Z" fill="rgb(255,255,255)" stroke="none" stroke-width="1"/><path id="eo9l35kv9zom103" d="M278.760000,271.140000L266.080000,271.140000C265.527715,271.140000,265.080000,270.692285,265.080000,270.140000C265.080000,269.587715,265.527715,269.140000,266.080000,269.140000L278.760000,269.140000C279.312285,269.140000,279.760000,269.587715,279.760000,270.140000C279.760000,270.692285,279.312285,271.140000,278.760000,271.140000Z" fill="rgb(255,255,255)" stroke="none" stroke-width="1"/><path id="eo9l35kv9zom104" d="M297.160000,271.140000L284.480000,271.140000C283.927715,271.140000,283.480000,270.692285,283.480000,270.140000C283.480000,269.587715,283.927715,269.140000,284.480000,269.140000L297.160000,269.140000C297.712285,269.140000,298.160000,269.587715,298.160000,270.140000C298.160000,270.692285,297.712285,271.140000,297.160000,271.140000Z" fill="rgb(255,255,255)" stroke="none" stroke-width="1"/><path id="eo9l35kv9zom105" d="M360.180000,112.120000C360.180000,112.120000,361.180000,107.720000,367.300000,108.500000C367.300000,108.500000,368.850000,103.500000,374.940000,104.230000C381.030000,104.960000,381.540000,109.230000,381.540000,109.230000C381.540000,109.230000,385.040000,107.670000,387.370000,109.100000C388.645674,109.779968,389.690032,110.824326,390.370000,112.100000Z" fill="rgb(255,255,255)" stroke="none" stroke-width="1"/><g id="eo9l35kv9zom106_to" transform="translate(0,0)"><path id="eo9l35kv9zom106" d="M207,34.720000C207,34.720000,205.360000,27.720000,195.690000,28.960000C195.690000,28.960000,193.230000,20.960000,183.560000,22.180000C173.890000,23.400000,173.070000,30.180000,173.070000,30.180000C173.070000,30.180000,167.520000,27.710000,163.820000,29.970000C160.120000,32.230000,159,34.720000,159,34.720000Z" transform="translate(0,0)" fill="rgb(255,255,255)" stroke="none" stroke-width="1"/></g><g id="eo9l35kv9zom107_to" transform="translate(84.670000,0.451812)"><path id="eo9l35kv9zom107" d="M0.820000,93.720000C0.820000,93.720000,4.320000,78.810000,24.930000,81.440000C24.930000,81.440000,30.090000,65.320000,50.790000,66.980000C72,68.670000,73.150000,84.070000,73.150000,84.070000C73.150000,84.070000,85,78.810000,92.880000,83.640000C100.760000,88.470000,103,93.720000,103,93.720000Z" transform="translate(0,0)" fill="rgb(255,255,255)" stroke="none" stroke-width="1"/></g><line id="eo9l35kv9zom108" x1="0.890000" y1="283.890000" x2="393.340000" y2="283.890000" fill="none" stroke="rgb(0,138,254)" stroke-width="1.780000" stroke-linecap="round" stroke-linejoin="round"/><rect id="eo9l35kv9zom109" width="60.440000" height="34.610000" rx="3.950000" ry="0" transform="matrix(1 0 0 1 20.62000000000000 248.11000000000001)" fill="rgb(255,255,255)" stroke="none" stroke-width="1"/><polyline id="eo9l35kv9zom110" points="40.710000,266.300000 48.730000,271.860000 62.770000,258.970000" fill="none" stroke="rgb(0,138,254)" stroke-width="1.670000" stroke-linecap="round" stroke-linejoin="round"/><rect id="eo9l35kv9zom111" width="34.020000" height="29.400000" rx="5.270000" ry="0" transform="matrix(0 -1 1 0 52.03000000000000 248.11000000000001)" fill="rgb(0,138,254)" stroke="none" stroke-width="1"/><path id="eo9l35kv9zom112" d="M72.730000,224.670000L61.190000,224.670000C60.612862,224.670000,60.145000,224.202138,60.145000,223.625000C60.145000,223.047862,60.612862,222.580000,61.190000,222.580000L72.730000,222.580000C73.307138,222.580000,73.775000,223.047862,73.775000,223.625000C73.775000,224.202138,73.307138,224.670000,72.730000,224.670000Z" fill="rgb(255,255,255)" stroke="none" stroke-width="1"/><path id="eo9l35kv9zom113" d="M65,231.720000L61.190000,231.720000C60.612862,231.720000,60.145000,231.252138,60.145000,230.675000C60.145000,230.097862,60.612862,229.630000,61.190000,229.630000L65,229.630000C65.577138,229.630000,66.045000,230.097862,66.045000,230.675000C66.045000,231.252138,65.577138,231.720000,65,231.720000Z" fill="rgb(255,255,255)" stroke="none" stroke-width="1"/><path id="eo9l35kv9zom114" d="M69.810000,239.300000L61.190000,239.300000C60.612862,239.300000,60.145000,238.832138,60.145000,238.255000C60.145000,237.677862,60.612862,237.210000,61.190000,237.210000L69.810000,237.210000C70.387138,237.210000,70.855000,237.677862,70.855000,238.255000C70.855000,238.832138,70.387138,239.300000,69.810000,239.300000Z" fill="rgb(255,255,255)" stroke="none" stroke-width="1"/><line id="eo9l35kv9zom115" x1="109.850000" y1="204.130000" x2="95.560000" y2="283.290000" fill="none" stroke="rgb(0,138,254)" stroke-width="1.780000" stroke-miterlimit="10"/><line id="eo9l35kv9zom116" x1="129.580000" y1="204.130000" x2="115.280000" y2="283.290000" fill="none" stroke="rgb(0,138,254)" stroke-width="1.780000" stroke-miterlimit="10"/><line id="eo9l35kv9zom117" x1="97.090000" y1="275.830000" x2="116.810000" y2="275.830000" fill="none" stroke="rgb(0,138,254)" stroke-width="1.780000" stroke-miterlimit="10"/><line id="eo9l35kv9zom118" x1="98.510000" y1="267.730000" x2="118.230000" y2="267.730000" fill="none" stroke="rgb(0,138,254)" stroke-width="1.780000" stroke-miterlimit="10"/><line id="eo9l35kv9zom119" x1="100.140000" y1="259.630000" x2="119.860000" y2="259.630000" fill="none" stroke="rgb(0,138,254)" stroke-width="1.780000" stroke-miterlimit="10"/><line id="eo9l35kv9zom120" x1="101.120000" y1="251.540000" x2="120.850000" y2="251.540000" fill="none" stroke="rgb(0,138,254)" stroke-width="1.780000" stroke-miterlimit="10"/><line id="eo9l35kv9zom121" x1="103.120000" y1="243.440000" x2="122.840000" y2="243.440000" fill="none" stroke="rgb(0,138,254)" stroke-width="1.780000" stroke-miterlimit="10"/><line id="eo9l35kv9zom122" x1="104.610000" y1="235.340000" x2="124.330000" y2="235.340000" fill="none" stroke="rgb(0,138,254)" stroke-width="1.780000" stroke-miterlimit="10"/><line id="eo9l35kv9zom123" x1="105.730000" y1="227.250000" x2="125.460000" y2="227.250000" fill="none" stroke="rgb(0,138,254)" stroke-width="1.780000" stroke-miterlimit="10"/><line id="eo9l35kv9zom124" x1="107.010000" y1="219.150000" x2="126.730000" y2="219.150000" fill="none" stroke="rgb(0,138,254)" stroke-width="1.780000" stroke-miterlimit="10"/><line id="eo9l35kv9zom125" x1="108.500000" y1="211.050000" x2="128.220000" y2="211.050000" fill="none" stroke="rgb(0,138,254)" stroke-width="1.780000" stroke-miterlimit="10"/></g></g></svg>