<svg id="eqfo2x4dula1" xmlns="http://www.w3.org/2000/svg" xmlns:xlink="http://www.w3.org/1999/xlink" viewBox="0 0 461.590000 410.130000" shape-rendering="geometricPrecision" text-rendering="geometricPrecision"><style><![CDATA[#eqfo2x4dula18_to {animation: eqfo2x4dula18_to__to 3000ms linear infinite normal forwards}@keyframes eqfo2x4dula18_to__to { 0% {transform: translate(0px,0px)} 50% {transform: translate(-11.070234px,40.659623px)} 100% {transform: translate(0px,0px)} }#eqfo2x4dula34_to {animation: eqfo2x4dula34_to__to 3000ms linear infinite normal forwards}@keyframes eqfo2x4dula34_to__to { 0% {transform: translate(0px,0px)} 50% {transform: translate(32.829760px,-20.848238px)} 100% {transform: translate(0px,0px)} }#eqfo2x4dula41_to {animation: eqfo2x4dula41_to__to 3000ms linear infinite normal forwards}@keyframes eqfo2x4dula41_to__to { 0% {transform: translate(0px,0px)} 50% {transform: translate(2.389760px,-61.865195px)} 100% {transform: translate(0px,0px)} }#eqfo2x4dula54_to {animation: eqfo2x4dula54_to__to 3000ms linear infinite normal forwards}@keyframes eqfo2x4dula54_to__to { 0% {transform: translate(0px,0px)} 50% {transform: translate(0.399097px,27.977432px)} 100% {transform: translate(0px,0px)} }#eqfo2x4dula78_to {animation: eqfo2x4dula78_to__to 3000ms linear infinite normal forwards}@keyframes eqfo2x4dula78_to__to { 0% {transform: translate(0px,0px)} 50% {transform: translate(3.642699px,-48.689808px)} 100% {transform: translate(0px,0px)} }#eqfo2x4dula86_to {animation: eqfo2x4dula86_to__to 3000ms linear infinite normal forwards}@keyframes eqfo2x4dula86_to__to { 0% {transform: translate(0px,0px)} 50% {transform: translate(3.460007px,-25.881044px)} 100% {transform: translate(0px,0px)} }]]></style><g id="eqfo2x4dula2"><g id="eqfo2x4dula3"><path id="eqfo2x4dula4" d="M67.600000,374.820000C157.730000,421.900000,303.860000,421.900000,393.990000,374.820000C484.120000,327.740000,484.120000,251.390000,393.990000,204.310000C303.860000,157.230000,157.730000,157.220000,67.600000,204.310000C-22.530000,251.400000,-22.530000,327.730000,67.600000,374.820000Z" fill="rgb(250,250,250)" stroke="none" stroke-width="1"/><g id="eqfo2x4dula5"><path id="eqfo2x4dula6" d="M69.440000,221.490000L74.050000,220.320000C75.521108,214.217139,76.481096,208.002302,76.920000,201.740000C78.110000,186.740000,72.280000,175.420000,65.020000,170.740000C56.410000,165.190000,51.890000,170.260000,52.400000,174.250000C52.950000,178.460000,57.500000,184.410000,59.670000,188.520000C62.820000,194.470000,67.570000,203.480000,69.440000,221.490000Z" fill="rgb(39,222,191)" stroke="none" stroke-width="1"/><path id="eqfo2x4dula7" d="M69.440000,221.490000L74.050000,220.320000C75.521108,214.217139,76.481096,208.002302,76.920000,201.740000C78.110000,186.740000,72.280000,175.420000,65.020000,170.740000C56.410000,165.190000,51.890000,170.260000,52.400000,174.250000C52.950000,178.460000,57.500000,184.410000,59.670000,188.520000C62.820000,194.470000,67.570000,203.480000,69.440000,221.490000Z" opacity="0.2" fill="rgb(0,0,0)" stroke="none" stroke-width="1"/><path id="eqfo2x4dula8" d="M71.660000,221.270000L71.590000,221.270000C71.407769,221.229947,71.288996,221.053986,71.320000,220.870000C76.840000,194.180000,65.500000,175.150000,58.500000,171.340000C58.334315,171.251634,58.271634,171.045685,58.360000,170.880000C58.448366,170.714315,58.654315,170.651634,58.820000,170.740000C66.200000,174.740000,77.650000,193.630000,71.990000,221.010000C71.956499,221.164537,71.818085,221.273590,71.660000,221.270000Z" fill="rgb(255,255,255)" stroke="none" stroke-width="1"/><path id="eqfo2x4dula9" d="M69.440000,221.490000C69.771523,216.485973,69.122716,211.465361,67.530000,206.710000C64.910000,199.360000,60.790000,192.550000,52.530000,190.030000C44.270000,187.510000,37.860000,193.480000,41.940000,199C46.020000,204.520000,61.160000,207.860000,64.110000,225Z" fill="rgb(39,222,191)" stroke="none" stroke-width="1"/><path id="eqfo2x4dula10" d="M67.080000,223.400000L67.080000,223.400000C66.895878,223.379031,66.762459,223.214480,66.780000,223.030000C68.010000,209.190000,58.670000,195.460000,46.390000,193.030000C46.207769,192.989947,46.088996,192.813986,46.120000,192.630000C46.136931,192.540989,46.188691,192.462418,46.263790,192.411726C46.338890,192.361034,46.431116,192.342415,46.520000,192.360000C59.130000,194.840000,68.720000,208.900000,67.450000,223.070000C67.450700,223.164914,67.410498,223.255534,67.339662,223.318712C67.268826,223.381890,67.174216,223.411508,67.080000,223.400000Z" fill="rgb(255,255,255)" stroke="none" stroke-width="1"/><path id="eqfo2x4dula11" d="M368.900000,333.180000C368.900000,333.180000,370.470000,318.340000,379.730000,308.370000C388.990000,298.400000,398.860000,298.490000,402.730000,302.070000C406.600000,305.650000,402.620000,311.220000,394.020000,316.650000C386.660000,321.300000,376.940000,331.850000,373.940000,338.970000Z" fill="rgb(39,222,191)" stroke="none" stroke-width="1"/><path id="eqfo2x4dula12" d="M368.900000,333.180000C368.900000,333.180000,370.470000,318.340000,379.730000,308.370000C388.990000,298.400000,398.860000,298.490000,402.730000,302.070000C406.600000,305.650000,402.620000,311.220000,394.020000,316.650000C386.660000,321.300000,376.940000,331.850000,373.940000,338.970000Z" opacity="0.2" fill="rgb(0,0,0)" stroke="none" stroke-width="1"/><path id="eqfo2x4dula13" d="M371,336L371,336C370.910327,335.978830,370.833086,335.922174,370.785959,335.843001C370.738832,335.763827,370.725856,335.668918,370.750000,335.580000C374.680000,320.440000,387.890000,305.190000,399,302.950000C399.090354,302.929392,399.185204,302.946559,399.262603,302.997529C399.340001,303.048499,399.393240,303.128854,399.410000,303.220000C399.427585,303.308884,399.408966,303.401110,399.358274,303.476210C399.307582,303.551309,399.229011,303.603069,399.140000,303.620000C388.250000,305.820000,375.290000,320.840000,371.420000,335.760000C371.366705,335.939442,371.181654,336.045185,371,336Z" fill="rgb(255,255,255)" stroke="none" stroke-width="1"/><path id="eqfo2x4dula14" d="M370.500000,368C370.500000,368,377.340000,369.940000,382.260000,366.550000C386.470000,363.650000,385.430000,360.550000,385.910000,358.180000C386.390000,355.810000,388.470000,354.510000,391.910000,354.060000C396.150000,353.510000,400.110000,352.840000,400.860000,348.360000C401.510000,344.410000,394.990000,342.270000,396.930000,338.420000C398.400000,335.510000,401.700000,333.570000,404.430000,331.420000C407.160000,329.270000,405.530000,324.570000,399.020000,324.560000C390.960000,324.560000,389.290000,327.560000,385.690000,328.030000C382.090000,328.500000,380.090000,326.430000,376.160000,326.950000C371.810000,327.520000,369.690000,331.680000,369.580000,336.870000Z" fill="rgb(39,222,191)" stroke="none" stroke-width="1"/><path id="eqfo2x4dula15" d="M370.050000,353.150000L369.940000,353.150000C369.762561,353.084223,369.669539,352.889320,369.730000,352.710000C373.320000,342.600000,392.650000,328.500000,400.800000,327.060000C400.987169,327.029564,401.164533,327.153719,401.200000,327.340000C401.230436,327.527169,401.106281,327.704533,400.920000,327.740000C392.920000,329.160000,373.920000,343,370.380000,352.940000C370.323029,353.070671,370.192501,353.153734,370.050000,353.150000Z" fill="rgb(255,255,255)" stroke="none" stroke-width="1"/><path id="eqfo2x4dula16" d="M396.510000,347.210000C396.460931,347.223642,396.409069,347.223642,396.360000,347.210000C391.360000,344.620000,382.790000,342.730000,376.230000,344.140000C376.043645,344.171588,375.864595,344.053677,375.820000,343.870000C375.799392,343.779646,375.816559,343.684796,375.867529,343.607397C375.918499,343.529999,375.998854,343.476760,376.090000,343.460000C382.800000,342.020000,391.520000,343.950000,396.670000,346.600000C396.751304,346.640679,396.812930,346.712225,396.841115,346.798658C396.869300,346.885092,396.861696,346.979213,396.820000,347.060000C396.751504,347.162505,396.632886,347.219901,396.510000,347.210000Z" fill="rgb(255,255,255)" stroke="none" stroke-width="1"/><path id="eqfo2x4dula17" d="M379.730000,340.590000L379.730000,340.590000C379.540539,340.590077,379.385413,340.439383,379.380000,340.250000C379.380000,334.200000,377.380000,331.250000,377.330000,331.250000C377.258547,331.149966,377.245889,331.019410,377.296795,330.907513C377.347701,330.795615,377.454436,330.719376,377.576795,330.707513C377.699154,330.695650,377.818547,330.749966,377.890000,330.850000C377.980000,330.970000,380.080000,333.980000,380.070000,340.270000C380.059398,340.449924,379.910236,340.590312,379.730000,340.590000Z" fill="rgb(255,255,255)" stroke="none" stroke-width="1"/></g><g id="eqfo2x4dula18_to" transform="translate(0,0)"><g id="eqfo2x4dula18" transform="translate(0,0)"><path id="eqfo2x4dula19" d="M126.910000,0.760000L127.510000,0.410000C128.597609,-0.140645,129.882391,-0.140645,130.970000,0.410000L229.060000,57C230.080450,57.668440,230.722589,58.781975,230.790000,60L230.790000,196.760000C230.725772,197.978970,230.082862,199.093842,229.060000,199.760000L228.460000,200.100000C227.374764,200.660498,226.085236,200.660498,225,200.100000L126.910000,143.470000C125.888347,142.802697,125.245825,141.688497,125.180000,140.470000L125.180000,3.760000C125.242620,2.540555,125.885921,1.425004,126.910000,0.760000Z" fill="rgb(250,250,250)" stroke="none" stroke-width="1"/><path id="eqfo2x4dula20" d="M230.790000,128.400000L230.790000,60C230.770149,59.400108,230.598092,58.815115,230.290000,58.300000L224.700000,61.530000L224.700000,199.930000L225,200.100000C226.085236,200.660498,227.374764,200.660498,228.460000,200.100000L229.060000,199.760000C230.082862,199.093842,230.725772,197.978970,230.790000,196.760000Z" fill="rgb(224,224,224)" stroke="none" stroke-width="1"/><path id="eqfo2x4dula21" d="M126.910000,2.760000L225,59.390000C226.019254,60.059569,226.661012,61.172444,226.730000,62.390000L226.730000,199.100000C226.730000,200.210000,225.950000,200.660000,225,200.100000L126.910000,143.470000C125.888347,142.802697,125.245825,141.688497,125.180000,140.470000L125.180000,3.760000C125.180000,2.650000,126,2.210000,126.910000,2.760000Z" fill="rgb(245,245,245)" stroke="none" stroke-width="1"/><path id="eqfo2x4dula22" d="M139.100000,19.180000L212.810000,61.740000C213.834079,62.405004,214.477380,63.520555,214.540000,64.740000L214.540000,70.120000C214.540000,71.220000,213.770000,71.670000,212.810000,71.120000L139.100000,28.560000C138.079550,27.891560,137.437411,26.778025,137.370000,25.560000L137.370000,20.180000C137.370000,19.070000,138.140000,18.620000,139.100000,19.180000Z" fill="rgb(224,224,224)" stroke="none" stroke-width="1"/><ellipse id="eqfo2x4dula23" rx="8.290000" ry="14.360000" transform="matrix(0.86602500000000 -0.50000000000000 0.50000000000000 0.86602500000000 147.52100799999999 54.52434325000000)" fill="rgb(224,224,224)" stroke="none" stroke-width="1"/><path id="eqfo2x4dula24" d="M147.600000,46.570000C145.600000,45.430000,144.040000,46.350000,144.040000,48.570000C144.169894,51.078164,145.493562,53.372274,147.600000,54.740000C149.600000,55.880000,151.160000,54.960000,151.160000,52.740000C151.030106,50.231836,149.706438,47.937726,147.600000,46.570000Z" fill="rgb(39,222,191)" stroke="none" stroke-width="1"/><path id="eqfo2x4dula25" d="M148.530000,56.470000L146.530000,55.300000C143.300000,53.440000,140.680000,54.950000,140.680000,58.680000L140.680000,59.190000C142.355748,62.068280,144.711051,64.492251,147.540000,66.250000C150.190000,67.780000,152.600000,67.990000,154.400000,67.110000L154.400000,66.610000C154.176461,62.486076,151.994868,58.717533,148.530000,56.470000Z" fill="rgb(39,222,191)" stroke="none" stroke-width="1"/><path id="eqfo2x4dula26" d="M139.530000,71L155.530000,80.230000C156.786572,81.014761,157.592863,82.352386,157.700000,83.830000C157.700000,85.120000,156.700000,85.610000,155.530000,84.920000L139.530000,75.690000C138.277589,74.907353,137.474820,73.573120,137.370000,72.100000C137.370000,70.830000,138.330000,70.340000,139.530000,71Z" fill="rgb(224,224,224)" stroke="none" stroke-width="1"/><path id="eqfo2x4dula27" d="M139.530000,80.410000L155.530000,89.640000C156.783856,90.422723,157.589768,91.756006,157.700000,93.230000C157.700000,94.530000,156.700000,95.020000,155.530000,94.330000L139.530000,85.100000C138.276056,84.314147,137.473309,82.976234,137.370000,81.500000C137.370000,80.210000,138.330000,79.720000,139.530000,80.410000Z" fill="rgb(224,224,224)" stroke="none" stroke-width="1"/><path id="eqfo2x4dula28" d="M139.530000,89.780000L155.530000,99.010000C156.786572,99.794761,157.592863,101.132386,157.700000,102.610000C157.700000,103.900000,156.700000,104.390000,155.530000,103.700000L139.530000,94.470000C138.277589,93.687353,137.474820,92.353120,137.370000,90.880000C137.370000,89.580000,138.330000,89.090000,139.530000,89.780000Z" fill="rgb(224,224,224)" stroke="none" stroke-width="1"/><path id="eqfo2x4dula29" d="M139.530000,99.160000L155.530000,108.390000C156.783856,109.172723,157.589768,110.506006,157.700000,111.980000C157.700000,113.280000,156.700000,113.770000,155.530000,113.080000L139.530000,103.850000C138.276056,103.064147,137.473309,101.726234,137.370000,100.250000C137.370000,99,138.330000,98.470000,139.530000,99.160000Z" fill="rgb(224,224,224)" stroke="none" stroke-width="1"/><path id="eqfo2x4dula30" d="M139.530000,113.230000L155.530000,122.460000C156.810830,123.291598,157.617221,124.685130,157.700000,126.210000L157.700000,135.280000C157.700000,136.660000,156.700000,137.220000,155.530000,136.530000L139.530000,127.310000C138.255390,126.473897,137.453697,125.082069,137.370000,123.560000L137.370000,114.480000C137.370000,113.100000,138.340000,112.540000,139.530000,113.230000Z" fill="rgb(39,222,191)" stroke="none" stroke-width="1"/><path id="eqfo2x4dula31" d="M172,52.260000L212.350000,75.560000C213.598859,76.346134,214.400436,77.678385,214.510000,79.150000C214.510000,80.450000,213.510000,80.940000,212.350000,80.250000L172,57C170.743428,56.215239,169.937137,54.877614,169.830000,53.400000C169.860000,52.060000,170.830000,51.570000,172,52.260000Z" fill="rgb(39,222,191)" stroke="none" stroke-width="1"/><path id="eqfo2x4dula32" d="M172,61.640000L212.350000,84.940000C213.598859,85.726134,214.400436,87.058385,214.510000,88.530000C214.510000,89.830000,213.510000,90.320000,212.350000,89.630000L172,66.330000C170.746144,65.547277,169.940232,64.213994,169.830000,62.740000C169.860000,61.440000,170.830000,61,172,61.640000Z" fill="rgb(39,222,191)" stroke="none" stroke-width="1"/><path id="eqfo2x4dula33" d="M172,71L212.350000,94.300000C213.598859,95.086134,214.400436,96.418385,214.510000,97.890000C214.510000,99.190000,213.510000,99.680000,212.350000,98.990000L172,75.710000C170.746144,74.927277,169.940232,73.593994,169.830000,72.120000C169.860000,70.820000,170.830000,70.330000,172,71Z" fill="rgb(39,222,191)" stroke="none" stroke-width="1"/></g></g><g id="eqfo2x4dula34_to" transform="translate(0,0)"><g id="eqfo2x4dula34" transform="translate(0,0)"><path id="eqfo2x4dula35" d="M310.140000,87.280000L313.930000,85.090000C315.290966,84.400409,316.899034,84.400409,318.260000,85.090000L403.260000,134.190000C404.534610,135.026103,405.336303,136.417931,405.420000,137.940000L405.420000,245.510000C405.336303,247.032069,404.534610,248.423897,403.260000,249.260000L399.460000,251.450000C398.099034,252.139591,396.490966,252.139591,395.130000,251.450000L310.130000,202.350000C308.864403,201.509524,308.073713,200.117466,308,198.600000L308,91C308.085302,89.491469,308.878819,88.112085,310.140000,87.280000Z" fill="rgb(69,90,100)" stroke="none" stroke-width="1"/><path id="eqfo2x4dula36" d="M405.460000,191.720000L405.460000,137.940000C405.434234,137.184887,405.217484,136.448626,404.830000,135.800000L393.270000,142.470000L393.270000,250.350000L395.170000,251.450000C396.530966,252.139591,398.139034,252.139591,399.500000,251.450000L403.300000,249.260000C404.574610,248.423897,405.376303,247.032069,405.460000,245.510000Z" fill="rgb(38,50,56)" stroke="none" stroke-width="1"/><path id="eqfo2x4dula37" d="M310.140000,89.780000L395.140000,138.880000C396.420830,139.711598,397.227221,141.105130,397.310000,142.630000L397.310000,250.200000C397.310000,251.580000,396.310000,252.140000,395.140000,251.450000L310.140000,202.350000C308.870597,201.511734,308.075987,200.119309,308,198.600000L308,91C308,89.650000,308.940000,89.090000,310.140000,89.780000Z" fill="rgb(55,71,79)" stroke="none" stroke-width="1"/><path id="eqfo2x4dula38" d="M389.070000,142.350000L316.220000,100.290000C315.030000,99.600000,314.060000,100.160000,314.060000,101.540000L314.060000,183.320000C314.143697,184.842069,314.945390,186.233897,316.220000,187.070000L389.070000,229.130000C390.270000,229.820000,391.240000,229.260000,391.240000,227.880000L391.240000,146.100000C391.157221,144.575130,390.350830,143.181598,389.070000,142.350000Z" fill="rgb(255,255,255)" stroke="none" stroke-width="1"/><path id="eqfo2x4dula39" d="M330.920000,118.560000C335.055398,121.263849,337.655119,125.776223,337.920000,130.710000C337.920000,135.190000,334.780000,137,330.920000,134.710000C326.782186,132.008435,324.181693,127.494721,323.920000,122.560000C323.910000,118.140000,327.050000,116.330000,330.920000,118.560000Z" fill="rgb(39,222,191)" stroke="none" stroke-width="1"/><path id="eqfo2x4dula40" d="M349.140000,168.340000L336.140000,148.680000C334.030000,145.500000,330.380000,145.330000,327.990000,148.310000L314.110000,165.590000L314.110000,183.360000C314.193697,184.882069,314.995390,186.273897,316.270000,187.110000L389.110000,229.110000C390.310000,229.800000,391.280000,229.240000,391.280000,227.860000L391.280000,181.780000L373.180000,143.480000C371.550000,140.030000,368.500000,139.790000,366.360000,142.950000Z" fill="rgb(39,222,191)" stroke="none" stroke-width="1"/></g></g><g id="eqfo2x4dula41_to" transform="translate(0,0)"><g id="eqfo2x4dula41" transform="translate(0,0)"><path id="eqfo2x4dula42" d="M283.600000,114L283.600000,140.150000L279.540000,137.800000L279.540000,116.330000C279.471012,115.112444,278.829254,113.999569,277.810000,113.330000L247,95.570000L240.610000,91.880000C239.610000,91.330000,238.880000,91.770000,238.880000,92.880000L238.880000,114.330000L234.850000,112L234.850000,85.840000C234.840349,85.726872,234.840349,85.613128,234.850000,85.500000C235,84.650000,235.710000,84.350000,236.560000,84.840000L281.870000,111C282.888065,111.670690,283.529446,112.782912,283.600000,114Z" fill="rgb(55,71,79)" stroke="none" stroke-width="1"/><path id="eqfo2x4dula43" d="M289.630000,110.490000L289.630000,136.640000L283.630000,140.130000L279.570000,137.780000L279.570000,116.330000C279.501012,115.112444,278.859254,113.999569,277.840000,113.330000L247,95.570000L240.610000,91.880000C239.610000,91.330000,238.880000,91.770000,238.880000,92.880000L238.880000,114.330000L234.850000,112L234.850000,85.840000C234.840349,85.726872,234.840349,85.613128,234.850000,85.500000C235.012758,84.409360,235.635364,83.440862,236.560000,82.840000L239.130000,81.350000C240.217609,80.799355,241.502391,80.799355,242.590000,81.350000L287.870000,107.490000C288.901883,108.151753,289.555810,109.266400,289.630000,110.490000Z" fill="rgb(69,90,100)" stroke="none" stroke-width="1"/><path id="eqfo2x4dula44" d="M247,95.570000L247,109.640000L238.880000,114.330000L238.880000,92.880000C238.880000,91.770000,239.650000,91.330000,240.610000,91.880000Z" fill="rgb(38,50,56)" stroke="none" stroke-width="1"/><path id="eqfo2x4dula45" d="M216.440000,94.320000L212.650000,92.130000C211.289034,91.440409,209.680966,91.440409,208.320000,92.130000L196.400000,99C195.864434,99.181727,195.504146,99.684442,195.504146,100.250000C195.504146,100.815558,195.864434,101.318273,196.400000,101.500000L200.190000,103.690000C201.550966,104.379591,203.159034,104.379591,204.520000,103.690000L216.440000,96.800000C216.960898,96.609894,217.307452,96.114504,217.307452,95.560000C217.307452,95.005496,216.960898,94.510106,216.440000,94.320000Z" fill="rgb(69,90,100)" stroke="none" stroke-width="1"/><path id="eqfo2x4dula46" d="M215.510000,96.130000L212.650000,94.480000C211.289034,93.790409,209.680966,93.790409,208.320000,94.480000L197.320000,100.820000L195.490000,100.270000L195.490000,102.610000L195.490000,102.610000C195.541045,103.159075,195.885466,103.637437,196.390000,103.860000L200.180000,106.050000C201.540966,106.739591,203.149034,106.739591,204.510000,106.050000L216.430000,99.170000C216.933153,98.945736,217.276904,98.468304,217.330000,97.920000L217.330000,97.920000L217.330000,95.570000Z" fill="rgb(38,50,56)" stroke="none" stroke-width="1"/><path id="eqfo2x4dula47" d="M313.930000,150.600000L310.140000,148.410000C308.779034,147.720409,307.170966,147.720409,305.810000,148.410000L293.890000,155.290000C293.354434,155.471727,292.994146,155.974442,292.994146,156.540000C292.994146,157.105558,293.354434,157.608273,293.890000,157.790000L297.680000,159.980000C299.039796,160.674469,300.650204,160.674469,302.010000,159.980000L313.930000,153.100000C314.465566,152.918273,314.825854,152.415558,314.825854,151.850000C314.825854,151.284442,314.465566,150.781727,313.930000,150.600000Z" fill="rgb(69,90,100)" stroke="none" stroke-width="1"/><path id="eqfo2x4dula48" d="M328.550000,329.940000L352.390000,316.170000C354.947849,314.504573,356.556700,311.717880,356.720000,308.670000L356.720000,173.270000C356.553510,170.223068,354.945433,167.437715,352.390000,165.770000L190.440000,72.270000C187.718455,70.889201,184.501545,70.889201,181.780000,72.270000L157.940000,86C155.384567,87.667715,153.776490,90.453068,153.610000,93.500000L153.610000,228.940000C153.776490,231.986932,155.384567,234.772285,157.940000,236.440000L319.940000,329.940000C322.647948,331.303948,325.842052,331.303948,328.550000,329.940000Z" fill="rgb(69,90,100)" stroke="none" stroke-width="1"/><path id="eqfo2x4dula49" d="M319.890000,184.530000L157.940000,91C155.550000,89.620000,153.610000,90.740000,153.610000,93.500000L153.610000,228.940000C153.776490,231.986932,155.384567,234.772285,157.940000,236.440000L319.940000,329.940000C322.330000,331.320000,324.270000,330.200000,324.270000,327.440000L324.270000,192C324.082879,188.954576,322.456267,186.180423,319.890000,184.530000Z" fill="rgb(55,71,79)" stroke="none" stroke-width="1"/><path id="eqfo2x4dula50" d="M356.720000,173.270000C356.665059,171.762091,356.228067,170.292834,355.450000,169L320.160000,189.380000L320.160000,330.060000C322.827348,331.307533,325.919422,331.263308,328.550000,329.940000L352.390000,316.170000C354.945097,314.506619,356.553577,311.724283,356.720000,308.680000Z" fill="rgb(55,71,79)" stroke="none" stroke-width="1"/><path id="eqfo2x4dula51" d="M334.100000,176.330000C336.655433,177.997715,338.263510,180.783068,338.430000,183.830000L338.430000,324.230000L342.500000,321.890000L342.500000,181.480000C342.333510,178.433068,340.725433,175.647715,338.170000,173.980000L171.890000,78L167.830000,80.350000Z" fill="rgb(38,50,56)" stroke="none" stroke-width="1"/><path id="eqfo2x4dula52" d="M313,152.410000L310.140000,150.760000C308.779034,150.070409,307.170966,150.070409,305.810000,150.760000L294.810000,157.100000L292.980000,156.540000L292.980000,158.890000L292.980000,158.890000C293.033096,159.438304,293.376847,159.915736,293.880000,160.140000L297.670000,162.330000C299.030966,163.019591,300.639034,163.019591,302,162.330000L313.920000,155.450000C314.423153,155.225736,314.766904,154.748304,314.820000,154.200000L314.820000,154.200000L314.820000,151.850000Z" fill="rgb(38,50,56)" stroke="none" stroke-width="1"/><path id="eqfo2x4dula53" d="M338.160000,174L172.160000,78.160000L168,80.410000L334.100000,176.330000C335.381273,177.125017,336.435351,178.237655,337.160000,179.560000L341.220000,177.210000L341.220000,177.210000C340.489686,175.897107,339.436468,174.792261,338.160000,174Z" fill="rgb(55,71,79)" stroke="none" stroke-width="1"/></g></g><g id="eqfo2x4dula54_to" transform="translate(0,0)"><g id="eqfo2x4dula54" transform="translate(0,0)"><path id="eqfo2x4dula55" d="M285.330000,178.640000L371.230000,228.240000C372.256674,228.903922,372.903516,230.019168,372.970000,231.240000L372.970000,372.640000C372.970000,373.750000,372.190000,374.190000,371.230000,373.640000L285.330000,324.050000C284.311935,323.379310,283.670554,322.267088,283.600000,321.050000L283.600000,179.640000C283.600000,178.540000,284.380000,178.090000,285.330000,178.640000Z" fill="rgb(255,255,255)" stroke="none" stroke-width="1"/><path id="eqfo2x4dula56" d="M344.530000,377L348.590000,374.650000L344.530000,257.550000C344.449480,256.026989,343.647019,254.633827,342.370000,253.800000L265.450000,209.390000C264.100878,208.525706,263.052794,207.264512,262.450000,205.780000L260.030000,198.780000C259.429995,197.301697,258.380548,196.049357,257.030000,195.200000L220.790000,174.900000C219.590000,174.230000,218.610000,174.800000,218.610000,176.180000L218.610000,301.780000C218.695273,303.301601,219.496586,304.692768,220.770000,305.530000Z" opacity="0.2" fill="rgb(0,0,0)" stroke="none" stroke-width="1"/><path id="eqfo2x4dula57" d="M344.530000,377L348.590000,374.650000L344.530000,257.550000C344.449480,256.026989,343.647019,254.633827,342.370000,253.800000L265.450000,209.390000C264.100878,208.525706,263.052794,207.264512,262.450000,205.780000L260.030000,198.780000C259.429995,197.301697,258.380548,196.049357,257.030000,195.200000L220.790000,174.900000C219.590000,174.230000,218.610000,174.800000,218.610000,176.180000L218.610000,301.780000C218.695273,303.301601,219.496586,304.692768,220.770000,305.530000Z" fill="rgb(39,222,191)" stroke="none" stroke-width="1"/><path id="eqfo2x4dula58" d="M372,374.380000C371.645917,374.362318,371.301997,374.255703,371,374.070000L285.100000,324.480000C283.916283,323.728908,283.170634,322.450120,283.100000,321.050000L283.100000,179.640000C283.054806,179.023993,283.345324,178.431490,283.860000,178.090000C284.411706,177.810310,285.072476,177.856411,285.580000,178.210000L371.480000,227.800000C372.662786,228.556678,373.407596,229.837751,373.480000,231.240000L373.480000,372.640000C373.531791,373.257267,373.239712,373.852954,372.720000,374.190000C372.503208,374.321119,372.253261,374.387077,372,374.380000ZM284.560000,178.910000C284.494409,178.893064,284.425591,178.893064,284.360000,178.910000C284.161683,179.080854,284.063749,179.340758,284.100000,179.600000L284.100000,321.050000C284.166626,322.087590,284.714065,323.034511,285.580000,323.610000L371.480000,373.210000C371.686921,373.371931,371.962130,373.417171,372.210000,373.330000C372.403814,373.156033,372.500814,372.898610,372.470000,372.640000L372.470000,231.240000C372.405681,230.196517,371.853608,229.244284,370.980000,228.670000L285.080000,179.070000C284.923539,178.972335,284.744301,178.917185,284.560000,178.910000Z" fill="rgb(224,224,224)" stroke="none" stroke-width="1"/><path id="eqfo2x4dula59" d="M293.890000,211.730000L362.680000,251.440000C363.928859,252.226134,364.730436,253.558385,364.840000,255.030000C364.840000,256.330000,363.840000,256.820000,362.680000,256.130000L293.890000,216.420000C292.636056,215.634147,291.833309,214.296234,291.730000,212.820000C291.730000,211.530000,292.690000,211,293.890000,211.730000Z" fill="rgb(224,224,224)" stroke="none" stroke-width="1"/><path id="eqfo2x4dula60" d="M293.890000,225.800000L362.680000,265.510000C363.928859,266.296134,364.730436,267.628385,364.840000,269.100000C364.840000,270.400000,363.840000,270.890000,362.680000,270.200000L293.890000,230.490000C292.636056,229.704147,291.833309,228.366234,291.730000,226.890000C291.730000,225.600000,292.690000,225.110000,293.890000,225.800000Z" fill="rgb(224,224,224)" stroke="none" stroke-width="1"/><path id="eqfo2x4dula61" d="M293.890000,239.870000L362.680000,279.580000C363.931568,280.368181,364.733519,281.704767,364.840000,283.180000C364.840000,284.470000,363.840000,284.960000,362.680000,284.270000L293.890000,244.560000C292.636056,243.774147,291.833309,242.436234,291.730000,240.960000C291.730000,239.670000,292.690000,239.180000,293.890000,239.870000Z" fill="rgb(224,224,224)" stroke="none" stroke-width="1"/><path id="eqfo2x4dula62" d="M293.890000,253.940000L362.680000,293.650000C363.931568,294.438181,364.733519,295.774767,364.840000,297.250000C364.840000,298.540000,363.840000,299.030000,362.680000,298.340000L293.890000,258.630000C292.637589,257.847353,291.834820,256.513120,291.730000,255.040000C291.730000,253.740000,292.690000,253.250000,293.890000,253.940000Z" fill="rgb(224,224,224)" stroke="none" stroke-width="1"/><path id="eqfo2x4dula63" d="M293.890000,268L362.680000,307.710000C363.931568,308.498181,364.733519,309.834767,364.840000,311.310000C364.840000,312.600000,363.840000,313.090000,362.680000,312.400000L293.890000,272.700000C292.637589,271.917353,291.834820,270.583120,291.730000,269.110000C291.730000,267.810000,292.690000,267.320000,293.890000,268Z" fill="rgb(224,224,224)" stroke="none" stroke-width="1"/><path id="eqfo2x4dula64" d="M293.890000,282.090000L362.680000,321.800000C363.928859,322.586134,364.730436,323.918385,364.840000,325.390000C364.840000,326.690000,363.840000,327.180000,362.680000,326.490000L293.890000,286.780000C292.636056,285.994147,291.833309,284.656234,291.730000,283.180000C291.730000,281.890000,292.690000,281.390000,293.890000,282.090000Z" fill="rgb(224,224,224)" stroke="none" stroke-width="1"/><path id="eqfo2x4dula65" d="M293.890000,296.160000L362.680000,335.870000C363.928859,336.656134,364.730436,337.988385,364.840000,339.460000C364.840000,340.760000,363.840000,341.250000,362.680000,340.560000L293.890000,300.850000C292.636056,300.064147,291.833309,298.726234,291.730000,297.250000C291.730000,296,292.690000,295.470000,293.890000,296.160000Z" fill="rgb(224,224,224)" stroke="none" stroke-width="1"/><path id="eqfo2x4dula66" d="M273.150000,185.670000L359.050000,235.260000C360.068065,235.930690,360.709446,237.042912,360.780000,238.260000L360.780000,379.670000C360.780000,380.770000,360,381.220000,359.050000,380.670000L273.150000,331.070000C272.123326,330.406078,271.476484,329.290832,271.410000,328.070000L271.410000,186.670000C271.410000,185.570000,272.190000,185.120000,273.150000,185.670000Z" fill="rgb(255,255,255)" stroke="none" stroke-width="1"/><path id="eqfo2x4dula67" d="M359.820000,381.400000C359.466362,381.387979,359.121856,381.284627,358.820000,381.100000L272.920000,331.510000C271.735977,330.754507,270.990762,329.472737,270.920000,328.070000L270.920000,186.670000C270.835222,186.045269,271.137289,185.431434,271.684002,185.117458C272.230715,184.803482,272.913130,184.851932,273.410000,185.240000L359.310000,234.830000C360.493717,235.581092,361.239366,236.859880,361.310000,238.260000L361.310000,379.670000C361.357358,380.286425,361.066332,380.879966,360.550000,381.220000C360.328017,381.346409,360.075303,381.408722,359.820000,381.400000ZM272.370000,185.930000C272.304140,185.915332,272.235860,185.915332,272.170000,185.930000C271.976186,186.103967,271.879186,186.361390,271.910000,186.620000L271.910000,328.020000C271.970487,329.062113,272.519018,330.014631,273.390000,330.590000L359.290000,380.190000C359.495322,380.346758,359.764936,380.391693,360.010000,380.310000C360.203814,380.136033,360.300814,379.878610,360.270000,379.620000L360.270000,238.260000C360.203374,237.222410,359.655935,236.275489,358.790000,235.700000L272.890000,186.100000C272.732700,186.002685,272.554408,185.944398,272.370000,185.930000Z" fill="rgb(224,224,224)" stroke="none" stroke-width="1"/><path id="eqfo2x4dula68" d="M281.700000,204.680000L322.060000,228C323.308859,228.786134,324.110436,230.118385,324.220000,231.590000C324.220000,232.890000,323.220000,233.380000,322.060000,232.690000L281.700000,209.390000C280.451141,208.603866,279.649564,207.271615,279.540000,205.800000C279.540000,204.480000,280.510000,204,281.700000,204.680000Z" fill="rgb(224,224,224)" stroke="none" stroke-width="1"/><path id="eqfo2x4dula69" d="M281.700000,218.750000L350.490000,258.460000C351.746572,259.244761,352.552863,260.582386,352.660000,262.060000C352.660000,263.350000,351.660000,263.850000,350.490000,263.150000L281.700000,223.440000C280.451141,222.653866,279.649564,221.321615,279.540000,219.850000C279.540000,218.550000,280.510000,218.060000,281.700000,218.750000Z" fill="rgb(224,224,224)" stroke="none" stroke-width="1"/><path id="eqfo2x4dula70" d="M281.700000,232.830000L350.490000,272.540000C351.743856,273.322723,352.549768,274.656006,352.660000,276.130000C352.660000,277.430000,351.660000,277.920000,350.490000,277.230000L281.700000,237.520000C280.448432,236.731819,279.646481,235.395233,279.540000,233.920000C279.540000,232.630000,280.510000,232.140000,281.700000,232.830000Z" fill="rgb(224,224,224)" stroke="none" stroke-width="1"/><path id="eqfo2x4dula71" d="M281.700000,246.900000L350.490000,286.610000C351.743856,287.392723,352.549768,288.726006,352.660000,290.200000C352.660000,291.500000,351.660000,291.990000,350.490000,291.300000L281.700000,251.590000C280.448432,250.801819,279.646481,249.465233,279.540000,247.990000C279.540000,246.700000,280.510000,246.210000,281.700000,246.900000Z" fill="rgb(224,224,224)" stroke="none" stroke-width="1"/><path id="eqfo2x4dula72" d="M281.700000,261L350.490000,300.710000C351.746572,301.494761,352.552863,302.832386,352.660000,304.310000C352.660000,305.600000,351.660000,306.090000,350.490000,305.400000L281.700000,265.660000C280.448432,264.871819,279.646481,263.535233,279.540000,262.060000C279.540000,260.770000,280.510000,260.280000,281.700000,261Z" fill="rgb(224,224,224)" stroke="none" stroke-width="1"/><path id="eqfo2x4dula73" d="M281.700000,275L350.490000,314.710000C351.746572,315.494761,352.552863,316.832386,352.660000,318.310000C352.660000,319.600000,351.660000,320.090000,350.490000,319.400000L281.700000,279.730000C280.451141,278.943866,279.649564,277.611615,279.540000,276.140000C279.540000,274.840000,280.510000,274.350000,281.700000,275Z" fill="rgb(224,224,224)" stroke="none" stroke-width="1"/><path id="eqfo2x4dula74" d="M281.700000,289.110000L350.490000,328.820000C351.746572,329.604761,352.552863,330.942386,352.660000,332.420000C352.660000,333.710000,351.660000,334.200000,350.490000,333.510000L281.700000,293.800000C280.451141,293.013866,279.649564,291.681615,279.540000,290.210000C279.540000,288.910000,280.510000,288.420000,281.700000,289.110000Z" fill="rgb(224,224,224)" stroke="none" stroke-width="1"/><path id="eqfo2x4dula75" d="M281.700000,303.190000L350.490000,342.900000C351.743856,343.682723,352.549768,345.016006,352.660000,346.490000C352.660000,347.790000,351.660000,348.280000,350.490000,347.590000L281.700000,307.880000C280.448432,307.091819,279.646481,305.755233,279.540000,304.280000C279.540000,303,280.510000,302.490000,281.700000,303.190000Z" fill="rgb(224,224,224)" stroke="none" stroke-width="1"/><path id="eqfo2x4dula76" d="M344.530000,377L324.670000,269.210000C324.304511,267.685943,323.370947,266.358923,322.060000,265.500000L200.460000,195.300000C199.270000,194.610000,198.460000,195.160000,198.750000,196.510000L218.150000,301.820000C218.522624,303.343548,219.458834,304.669250,220.770000,305.530000Z" fill="rgb(39,222,191)" stroke="none" stroke-width="1"/><path id="eqfo2x4dula77" d="M293.890000,197.650000L334.240000,221C335.496572,221.784761,336.302863,223.122386,336.410000,224.600000C336.410000,225.890000,335.410000,226.380000,334.240000,225.690000L293.890000,202.390000C292.637589,201.607353,291.834820,200.273120,291.730000,198.800000C291.730000,197.450000,292.690000,197,293.890000,197.650000Z" fill="rgb(55,71,79)" stroke="none" stroke-width="1"/></g></g><g id="eqfo2x4dula78_to" transform="translate(0,0)"><g id="eqfo2x4dula78" transform="translate(0,0)"><path id="eqfo2x4dula79" d="M194.240000,245.800000L194.240000,315.850000C194.318918,317.373485,195.121768,318.767320,196.400000,319.600000L244.880000,347.600000C246.157062,348.395860,247.769037,348.422164,249.071385,347.668393C250.373733,346.914623,251.153923,345.503786,251.100000,344L251.100000,273.940000C251.016303,272.417931,250.214610,271.026103,248.940000,270.190000L200.460000,242.190000C199.185582,241.387742,197.571805,241.356777,196.267548,242.109555C194.963292,242.862333,194.182839,244.275177,194.240000,245.780000Z" fill="rgb(69,90,100)" stroke="none" stroke-width="1"/><path id="eqfo2x4dula80" d="M196.400000,244.550000L244.880000,272.550000C246.154610,273.386103,246.956303,274.777931,247.040000,276.300000L247.040000,346.300000C247.040000,347.680000,246.040000,348.240000,244.880000,347.550000L196.400000,319.550000C195.121768,318.717320,194.318918,317.323485,194.240000,315.800000L194.240000,245.800000C194.240000,244.420000,195.200000,243.860000,196.400000,244.550000Z" fill="rgb(55,71,79)" stroke="none" stroke-width="1"/><path id="eqfo2x4dula81" d="M251.100000,309L251.100000,274C251.074294,273.248019,250.857479,272.514977,250.470000,271.870000L244.380000,275.390000L244.380000,347.390000L244.880000,347.680000C246.185160,348.371842,247.742459,348.397859,249.070000,347.750000L249.070000,347.750000C250.283546,346.915398,251.026436,345.552195,251.070000,344.080000Z" fill="rgb(38,50,56)" stroke="none" stroke-width="1"/><path id="eqfo2x4dula82" d="M200.460000,251.590000L240.810000,274.880000C242.090830,275.711598,242.897221,277.105130,242.980000,278.630000L242.980000,329.920000C242.980000,331.300000,241.980000,331.860000,240.810000,331.170000L200.460000,307.870000C199.185390,307.033897,198.383697,305.642069,198.300000,304.120000L198.300000,252.840000C198.300000,251.460000,199.270000,250.900000,200.460000,251.590000Z" fill="rgb(255,255,255)" stroke="none" stroke-width="1"/><path id="eqfo2x4dula83" d="M228.550000,281.790000L218.610000,296.490000L211.050000,285.110000C210.596103,284.254949,209.724701,283.702867,208.757698,283.657699C207.790694,283.612532,206.871624,284.080982,206.340000,284.890000L198.340000,294.890000L198.340000,304.110000C198.423697,305.632069,199.225390,307.023897,200.500000,307.860000L240.860000,331.160000C242.050000,331.850000,243.020000,331.290000,243.020000,329.910000L243.020000,304.270000L232.500000,282.100000C231.560000,280.100000,229.790000,280,228.550000,281.790000Z" opacity="0.2" fill="rgb(0,0,0)" stroke="none" stroke-width="1"/><path id="eqfo2x4dula84" d="M228.550000,281.790000L218.610000,296.490000L211.050000,285.110000C210.596103,284.254949,209.724701,283.702867,208.757698,283.657699C207.790694,283.612532,206.871624,284.080982,206.340000,284.890000L198.340000,294.890000L198.340000,304.110000C198.423697,305.632069,199.225390,307.023897,200.500000,307.860000L240.860000,331.160000C242.050000,331.850000,243.020000,331.290000,243.020000,329.910000L243.020000,304.270000L232.500000,282.100000C231.560000,280.100000,229.790000,280,228.550000,281.790000Z" fill="rgb(39,222,191)" stroke="none" stroke-width="1"/><path id="eqfo2x4dula85" d="M208.060000,263.560000C210.892879,265.406774,212.675734,268.493342,212.860000,271.870000C212.860000,274.930000,210.710000,276.170000,208.060000,274.640000C205.227121,272.793226,203.444266,269.706658,203.260000,266.330000C203.260000,263.270000,205.410000,262,208.060000,263.560000Z" fill="rgb(39,222,191)" stroke="none" stroke-width="1"/></g></g><g id="eqfo2x4dula86_to" transform="translate(0,0)"><g id="eqfo2x4dula86" transform="translate(0,0)"><path id="eqfo2x4dula87" d="M41.600000,232.920000C73.303737,213.807475,92.684405,179.489124,92.680000,142.470000L92.680000,107C92.680000,105.900000,93.460000,105.450000,94.410000,106L184.410000,157.940000C185.429254,158.609569,186.071012,159.722444,186.140000,160.940000L186.140000,196.460000C186.143080,233.315337,166.931011,267.505923,135.450000,286.670000C134.142718,287.444302,132.517282,287.444302,131.210000,286.670000L41.610000,234.940000C41.179975,234.791991,40.890495,234.388326,40.888244,233.933548C40.885992,233.478771,41.171462,233.072259,41.600000,232.920000Z" fill="rgb(255,255,255)" stroke="none" stroke-width="1"/><path id="eqfo2x4dula88" d="M120.810000,260.870000C118.362973,260.894345,115.951349,260.284549,113.810000,259.100000C111.810000,257.950000,110.610000,256.450000,110.400000,254.860000C110.291553,253.345707,110.894045,251.867199,112.030000,250.860000C114.124163,248.882644,116.910332,247.805517,119.790000,247.860000C121.801333,247.841125,123.781794,248.355217,125.530000,249.350000C127.541053,250.374678,128.976376,252.259000,129.430000,254.470000C129.621824,255.906258,129.116538,257.347807,128.070000,258.350000C126.069464,260.101590,123.465536,261.005433,120.810000,260.870000Z" opacity="0.3" fill="rgb(0,0,0)" stroke="none" stroke-width="1"/><path id="eqfo2x4dula89" d="M125.570000,250.600000C123.819830,249.610064,121.840692,249.096315,119.830000,249.110000C116.950332,249.055517,114.164163,250.132644,112.070000,252.110000C111.255289,252.885758,110.694082,253.889655,110.460000,254.990000C110.922617,256.800768,112.164138,258.313300,113.850000,259.120000C115.991349,260.304549,118.402973,260.914345,120.850000,260.890000C123.520489,261.033270,126.140904,260.125098,128.150000,258.360000C128.878570,257.648716,129.352948,256.717529,129.500000,255.710000C129.036998,253.496850,127.590149,251.615579,125.570000,250.600000Z" fill="rgb(39,222,191)" stroke="none" stroke-width="1"/><path id="eqfo2x4dula90" d="M125.570000,250.600000C123.819830,249.610064,121.840692,249.096315,119.830000,249.110000C116.950332,249.055517,114.164163,250.132644,112.070000,252.110000C111.255289,252.885758,110.694082,253.889655,110.460000,254.990000C110.922617,256.800768,112.164138,258.313300,113.850000,259.120000C115.991349,260.304549,118.402973,260.914345,120.850000,260.890000C123.520489,261.033270,126.140904,260.125098,128.150000,258.360000C128.878570,257.648716,129.352948,256.717529,129.500000,255.710000C129.036998,253.496850,127.590149,251.615579,125.570000,250.600000Z" opacity="0.2" fill="rgb(0,0,0)" stroke="none" stroke-width="1"/><path id="eqfo2x4dula91" d="M130.250000,261.700000C126.180000,265.840000,117.960000,266.190000,112.350000,262.950000C106.740000,259.710000,105.860000,254.110000,109.930000,249.950000C114,245.790000,121.460000,244.730000,127.070000,247.950000C132.680000,251.170000,134.320000,257.560000,130.250000,261.700000Z" opacity="0.2" fill="rgb(0,0,0)" stroke="none" stroke-width="1"/><path id="eqfo2x4dula92" d="M120.810000,260.870000C118.362973,260.894345,115.951349,260.284549,113.810000,259.100000C111.810000,257.950000,110.610000,256.450000,110.400000,254.860000C110.291553,253.345707,110.894045,251.867199,112.030000,250.860000C114.124163,248.882644,116.910332,247.805517,119.790000,247.860000C121.801333,247.841125,123.781794,248.355217,125.530000,249.350000C127.541053,250.374678,128.976376,252.259000,129.430000,254.470000C129.621824,255.906258,129.116538,257.347807,128.070000,258.350000C126.069464,260.101590,123.465536,261.005433,120.810000,260.870000Z" fill="rgb(39,222,191)" stroke="none" stroke-width="1"/><path id="eqfo2x4dula93" d="M130.250000,260.450000C126.180000,264.590000,117.960000,264.930000,112.350000,261.690000C106.740000,258.450000,105.860000,252.860000,109.930000,248.690000C114,244.520000,121.460000,243.460000,127.070000,246.690000C132.680000,249.920000,134.320000,256.310000,130.250000,260.450000Z" fill="rgb(39,222,191)" stroke="none" stroke-width="1"/><path id="eqfo2x4dula94" d="M130.250000,261.700000C126.180000,265.840000,117.960000,266.190000,112.350000,262.950000C106.740000,259.710000,105.860000,254.110000,109.930000,249.950000C114,245.790000,121.460000,244.730000,127.070000,247.950000C132.680000,251.170000,134.320000,257.560000,130.250000,261.700000Z" fill="rgb(39,222,191)" stroke="none" stroke-width="1"/><path id="eqfo2x4dula95" d="M110.150000,257C110.150000,257,91.150000,269.550000,68.310000,270.420000C72.960000,273.110000,83.450000,274.220000,91.550000,273.110000C91.550000,273.110000,90.420000,277.820000,82.260000,283.840000C82.260000,283.840000,95.550000,287.430000,119.440000,262.370000Z" fill="rgb(39,222,191)" stroke="none" stroke-width="1"/><path id="eqfo2x4dula96" d="M123.400000,237.600000C122.503211,238.519266,121.085649,238.686038,120,238L83.680000,217C83.155956,216.766909,82.757201,216.320055,82.585039,215.772960C82.412876,215.225865,82.483875,214.631186,82.780000,214.140000C83.677170,213.211313,85.106313,213.047863,86.190000,213.750000L122.480000,234.750000C123.670000,235.410000,124.090000,236.710000,123.400000,237.600000Z" fill="rgb(224,224,224)" stroke="none" stroke-width="1"/><path id="eqfo2x4dula97" d="M160.770000,240.410000C160.028779,241.422576,158.610691,241.650005,157.590000,240.920000L92.890000,203.570000C91.764567,203.039974,91.250566,201.722024,91.720000,200.570000C92.060707,200.079794,92.583738,199.746663,93.172026,199.645169C93.760314,199.543675,94.364733,199.682294,94.850000,200.030000L159.570000,237.390000C160.698128,237.928035,161.221195,239.244419,160.770000,240.410000Z" fill="rgb(224,224,224)" stroke="none" stroke-width="1"/><path id="eqfo2x4dula98" d="M166.050000,229.380000C165.620000,230.430000,164.280000,230.710000,163.050000,230.020000L98.370000,192.660000C97.219715,192.077028,96.644978,190.759746,97,189.520000C97.430000,188.470000,98.720000,188.170000,99.920000,188.860000L164.640000,226.230000C165.792366,226.817690,166.379361,228.129061,166.050000,229.380000Z" fill="rgb(224,224,224)" stroke="none" stroke-width="1"/><path id="eqfo2x4dula99" d="M170.070000,217.640000C169.760000,218.750000,168.510000,219.090000,167.320000,218.400000L102.610000,181C101.440228,180.362448,100.802209,179.054309,101.020000,177.740000C101.330000,176.620000,102.530000,176.270000,103.730000,176.960000L168.450000,214.330000C169.637140,214.978294,170.286364,216.304795,170.070000,217.640000Z" fill="rgb(224,224,224)" stroke="none" stroke-width="1"/><path id="eqfo2x4dula100" d="M172.740000,205.100000C172.560000,206.290000,171.420000,206.690000,170.220000,206L105.520000,168.640000C104.318513,167.936721,103.611880,166.619989,103.690000,165.230000C103.870000,164.040000,104.960000,163.630000,106.160000,164.320000L170.890000,201.690000C172.094079,202.392969,172.807162,203.707355,172.740000,205.100000Z" fill="rgb(224,224,224)" stroke="none" stroke-width="1"/><path id="eqfo2x4dula101" d="M133.300000,163.580000C133.300000,164.870000,132.300000,165.360000,131.130000,164.670000L107,150.760000C105.746144,149.977277,104.940232,148.643994,104.830000,147.170000C104.830000,145.870000,105.830000,145.380000,107,146.070000L131.130000,160C132.381148,160.780681,133.186684,162.109628,133.300000,163.580000Z" fill="rgb(224,224,224)" stroke="none" stroke-width="1"/><path id="eqfo2x4dula102" d="M147.650000,150.760000L171.760000,164.680000C173.008859,165.466134,173.810436,166.798385,173.920000,168.270000C173.920000,169.570000,172.920000,170.060000,171.760000,169.370000L147.650000,155.450000C146.398432,154.661819,145.596481,153.325233,145.490000,151.850000C145.490000,150.560000,146.460000,150.070000,147.650000,150.760000Z" fill="rgb(224,224,224)" stroke="none" stroke-width="1"/><path id="eqfo2x4dula103" d="M133.290000,287.720000C132.460325,287.721028,131.645483,287.500055,130.930000,287.080000L41.360000,235.370000C40.793213,235.113771,40.410261,234.569980,40.360000,233.950000C40.402492,233.317508,40.785599,232.758172,41.360000,232.490000L41.360000,232.490000C72.826015,213.393135,92.086296,179.297437,92.200000,142.490000L92.200000,107C92.154806,106.383993,92.445324,105.791490,92.960000,105.450000C93.511706,105.170310,94.172476,105.216411,94.680000,105.570000L184.680000,157.510000C185.863717,158.261092,186.609366,159.539880,186.680000,160.940000L186.680000,196.460000C186.559531,233.458157,167.288220,267.755263,135.750000,287.100000C135.005364,287.535713,134.152197,287.750738,133.290000,287.720000ZM41.860000,233.350000C41.560000,233.530000,41.390000,233.740000,41.390000,233.940000C41.390000,234.140000,41.570000,234.330000,41.860000,234.500000L131.430000,286.220000C132.581811,286.894663,134.008189,286.894663,135.160000,286.220000C166.402844,267.057342,185.492913,233.081181,185.610000,196.430000L185.610000,160.890000C185.543382,159.849728,184.996312,158.899748,184.130000,158.320000L94.130000,106.380000C93.924678,106.223242,93.655064,106.178307,93.410000,106.260000C93.216186,106.433967,93.119186,106.691390,93.150000,106.950000L93.150000,142.470000C93.041379,179.634587,73.599027,214.064067,41.830000,233.350000Z" fill="rgb(224,224,224)" stroke="none" stroke-width="1"/></g></g><circle id="eqfo2x4dula104" r="7.530000" transform="matrix(0.24632200000000 -0.96918800000000 0.96918800000000 0.24632200000000 160.31951898000003 227.91672464000004)" fill="rgb(38,50,56)" stroke="none" stroke-width="1"/><rect id="eqfo2x4dula105" width="5.300000" height="9.080000" rx="0" ry="0" transform="matrix(1 0 0 1 173.05000000000001 355.31000000000000)" fill="rgb(255,168,167)" stroke="none" stroke-width="1"/><polygon id="eqfo2x4dula106" points="159.970000,354.820000 154.670000,355.010000 154.410000,345.400000 159.970000,345.220000 159.970000,354.820000" fill="rgb(255,168,167)" stroke="none" stroke-width="1"/><path id="eqfo2x4dula107" d="M178,277.520000C178,282.580000,178.650000,319.100000,178.650000,319.100000C178.770000,320.560000,180.140000,323.250000,179.840000,328.840000C179.440000,336.440000,178.570000,359.840000,178.570000,359.840000C176.715640,360.744333,174.556781,360.784583,172.670000,359.950000C170.783219,359.115417,167.990000,328.860000,167.040000,321.330000C166.210000,314.750000,164.800000,296.890000,164.800000,296.890000L161.930000,318.350000C162.543543,321.115225,162.762382,323.953405,162.580000,326.780000C162.340000,330.270000,160.300000,351.840000,160.300000,351.840000C158.426709,352.895458,156.182297,353.067542,154.170000,352.310000C152.157703,351.552458,151.490000,321.550000,151.430000,318.310000C151.360000,314.670000,153.200000,277.470000,153.200000,277.470000Z" fill="rgb(55,71,79)" stroke="none" stroke-width="1"/><path id="eqfo2x4dula108" d="M175.740000,248.750000C175.740000,248.750000,177.740000,249.950000,177.740000,254.750000L177.740000,265.140000L177.890000,284.750000C169.838552,289.179902,159.946158,288.524053,152.550000,283.070000C145.153842,277.615947,152.940000,257.850000,152.940000,253.720000C152.940000,249.590000,155.240000,244.230000,161.580000,243.860000L169.760000,245.760000Z" fill="rgb(255,255,255)" stroke="none" stroke-width="1"/><path id="eqfo2x4dula109" d="M153,270.430000C155.470000,260.100000,156.270000,249.770000,156.690000,247.110000L149.840000,258C149.840000,258,148.330000,266.450000,147.550000,270.930000C146.544398,275.743090,145.125815,280.460549,143.310000,285.030000C142.817946,285.699039,142.164228,286.232336,141.410000,286.580000C140.223117,287.227413,139.138126,288.046210,138.190000,289.010000C137.310000,289.750000,136.610000,289.880000,136.680000,290.150000C136.927947,290.793020,137.631709,291.133973,138.290000,290.930000C138.986462,290.740366,139.657858,290.468450,140.290000,290.120000C139.684538,291.280484,138.898008,292.337066,137.960000,293.250000C135.810000,295.340000,135.560000,296.750000,139.360000,297.250000C141.740000,297.540000,143.810000,296.250000,146.200000,291.250000C147.117810,289.408267,147.903135,287.503438,148.550000,285.550000C150.070000,280.410000,152.210000,273.550000,153,270.430000Z" fill="rgb(255,168,167)" stroke="none" stroke-width="1"/><path id="eqfo2x4dula110" d="M158.420000,243.870000C156.120000,243.510000,154.540000,243.710000,152.970000,245.400000C151.970000,246.460000,150.970000,248.220000,149.250000,258.800000C147.760000,268,143.510000,283.190000,143.510000,283.190000C144.961619,284.822099,147.140616,285.608646,149.300000,285.280000L156.780000,257.770000Z" fill="rgb(55,71,79)" stroke="none" stroke-width="1"/><path id="eqfo2x4dula111" d="M161.840000,244.320000C160.084244,245.805226,158.815944,247.784332,158.200000,250C157.420000,253.370000,157.300000,290.940000,157.300000,290.940000C157.300000,290.940000,153.300000,290.200000,151.440000,288.740000L151.440000,254.360000C151.440000,249.440000,152.550000,242,161.840000,244.320000Z" fill="rgb(55,71,79)" stroke="none" stroke-width="1"/><path id="eqfo2x4dula112" d="M170,246.220000C170,246.220000,165.560000,250.830000,165.470000,262.080000C165.380000,273.330000,165.190000,293.080000,165.190000,293.080000C165.190000,293.080000,173,294.670000,178.580000,291.340000C178.580000,291.340000,177.950000,263.160000,177.840000,258.930000C177.720000,254.090000,179.130000,249.930000,176.410000,248.620000C174.343671,247.643424,172.199593,246.840649,170,246.220000Z" fill="rgb(55,71,79)" stroke="none" stroke-width="1"/><path id="eqfo2x4dula113" d="M173.340000,233.300000C172.888724,235.552093,172.317916,237.778575,171.630000,239.970000C171.302670,240.549921,170.766053,240.982793,170.130000,241.180000L170.220000,237.180000Z" fill="rgb(38,50,56)" stroke="none" stroke-width="1"/><path id="eqfo2x4dula114" d="M171.810000,225.090000C172.674771,224.987365,173.538452,225.290023,174.150000,225.910000C175.150000,226.910000,174.590000,230.150000,173.340000,233.300000L171.040000,233.560000Z" fill="rgb(38,50,56)" stroke="none" stroke-width="1"/><path id="eqfo2x4dula115" d="M170.350000,233.560000C170.810000,233.840000,171.470000,232.950000,172.040000,232.360000C172.493848,231.840268,173.183545,231.591183,173.864751,231.700989C174.545957,231.810796,175.122452,232.263983,175.390000,232.900000C176.330000,234.900000,174.570000,237.510000,173.110000,237.970000C170.590000,238.760000,170.220000,237.150000,170.220000,237.150000L170.020000,246.220000L161.300000,252C160.993802,249.985709,161.179063,247.927249,161.840000,246L161.840000,243.240000C160.719716,243.421404,159.582812,243.478417,158.450000,243.410000C156.600000,243.130000,155.450000,241.670000,154.880000,239.670000C153.970000,236.450000,153.630000,233.850000,154.400000,227.520000C155.230000,220.590000,163.300000,220.520000,167.660000,223.260000C172.020000,226,170.350000,233.560000,170.350000,233.560000Z" fill="rgb(255,168,167)" stroke="none" stroke-width="1"/><path id="eqfo2x4dula116" d="M161.300000,252L170.050000,244.880000L170.050000,243.740000C170.050000,243.740000,172.050000,244.140000,172.340000,246.980000L167.060000,255L164.810000,250.790000Z" fill="rgb(240,240,240)" stroke="none" stroke-width="1"/><path id="eqfo2x4dula117" d="M161.840000,243.220000C160.751414,243.376537,159.771355,243.963851,159.120000,244.850000C158.290000,246.230000,156.780000,251.970000,156.780000,251.970000L159.610000,249.790000L161.300000,252C161.136220,249.983838,161.318858,247.954519,161.840000,246Z" fill="rgb(240,240,240)" stroke="none" stroke-width="1"/><path id="eqfo2x4dula118" d="M170.350000,234.340000C170.580000,234.340000,171.470000,232.880000,172.040000,232.340000C172.830000,231.610000,171.810000,225.070000,171.810000,225.070000C172.233829,223.908522,171.931818,222.606343,171.040000,221.750000C169.950000,220.560000,168.130000,220.420000,165.040000,219.940000C163.410000,219.680000,160.940000,219.220000,159.310000,218.940000C157.370000,218.580000,155.760000,218.200000,154.390000,219.390000C153.274240,220.335927,152.873883,221.881307,153.390000,223.250000C153.530777,223.551999,153.719934,223.828978,153.950000,224.070000C154.311742,224.525671,154.792971,224.871878,155.340000,225.070000C155.887029,225.268122,156.190000,225.820000,159.140000,226.180000C161.862238,226.386141,164.597921,226.332565,167.310000,226.020000C168.160000,225.910000,168.310000,226.730000,168.800000,229.020000C169.240000,231,169.570000,234.320000,170.350000,234.340000Z" fill="rgb(38,50,56)" stroke="none" stroke-width="1"/><path id="eqfo2x4dula119" d="M171.800000,225.600000L174.590000,224.100000C174.409706,223.721068,174.082585,223.432121,173.684294,223.299986C173.286002,223.167852,172.851038,223.203974,172.480000,223.400000C171.707375,223.838250,171.409423,224.802215,171.800000,225.600000Z" fill="rgb(38,50,56)" stroke="none" stroke-width="1"/><path id="eqfo2x4dula120" d="M161.840000,243.220000C163.745098,242.858777,165.612957,242.323190,167.420000,241.620000C168.273912,241.171377,168.971377,240.473912,169.420000,239.620000C169.196143,240.460731,168.808759,241.249091,168.280000,241.940000C167.220000,243.300000,161.840000,244.290000,161.840000,244.290000Z" fill="rgb(242,143,143)" stroke="none" stroke-width="1"/><path id="eqfo2x4dula121" d="M162.840000,232.530000C162.856501,232.985418,163.237106,233.342354,163.692645,233.329622C164.148183,233.316890,164.508257,232.939251,164.499295,232.483623C164.490333,232.027995,164.115687,231.664808,163.660000,231.670000C163.198408,231.686266,162.834280,232.068157,162.840000,232.530000Z" fill="rgb(38,50,56)" stroke="none" stroke-width="1"/><path id="eqfo2x4dula122" d="M163.710000,229.400000L165.490000,230.400000C165.752055,229.893539,165.566474,229.270516,165.070000,228.990000C164.835524,228.862812,164.559951,228.834576,164.304554,228.911571C164.049158,228.988565,163.835108,229.164408,163.710000,229.400000Z" fill="rgb(38,50,56)" stroke="none" stroke-width="1"/><path id="eqfo2x4dula123" d="M162.220000,238.250000L160.330000,238.960000C160.416235,239.212894,160.600089,239.420759,160.840557,239.537236C161.081026,239.653713,161.358106,239.669112,161.610000,239.580000C162.135780,239.370597,162.404322,238.785089,162.220000,238.250000Z" fill="rgb(242,143,143)" stroke="none" stroke-width="1"/><path id="eqfo2x4dula124" d="M155.450000,230.090000L157.070000,228.850000C156.913873,228.634708,156.678419,228.490474,156.415699,228.449189C156.152979,228.407904,155.884635,228.472970,155.670000,228.630000C155.218854,228.980009,155.122027,229.622590,155.450000,230.090000Z" fill="rgb(38,50,56)" stroke="none" stroke-width="1"/><path id="eqfo2x4dula125" d="M156,232.290000C156.016425,232.744128,156.394984,233.100616,156.849279,233.089763C157.303575,233.078911,157.664680,232.704753,157.659402,232.250359C157.654124,231.795965,157.284425,231.430297,156.830000,231.430000C156.605449,231.432609,156.391291,231.525023,156.235342,231.686609C156.079393,231.848195,155.994638,232.065497,156,232.290000Z" fill="rgb(38,50,56)" stroke="none" stroke-width="1"/><polygon id="eqfo2x4dula126" points="160.170000,231.510000 159.900000,236.490000 157.300000,235.600000 160.170000,231.510000" fill="rgb(242,143,143)" stroke="none" stroke-width="1"/><g id="eqfo2x4dula127"><path id="eqfo2x4dula128" d="M173.050000,361.770000L173.050000,361C172.540000,361.220000,171.370000,365.720000,169.260000,367.640000C167.590000,369.160000,165.310000,370.920000,164.730000,372.640000C164.150000,374.360000,167.900000,375.380000,169.470000,375.100000C171.280000,374.780000,174.470000,373.500000,175.220000,372.320000C175.970000,371.140000,176.380000,369.390000,177.020000,368.520000C177.660000,367.650000,179.140000,366.680000,179.490000,365.670000C179.592218,364.732542,179.489865,363.784068,179.190000,362.890000C178.940000,361.950000,178.670000,360.890000,178.350000,361.010000L178.350000,361.590000C177.594594,362.181276,176.659171,362.495437,175.700000,362.480000C174.930000,362.510000,173,362.360000,173.050000,361.770000Z" fill="rgb(38,50,56)" stroke="none" stroke-width="1"/><path id="eqfo2x4dula129" d="M154.610000,353.370000C154.340000,353.370000,154.120000,353.770000,153.510000,354.430000C152.599430,355.342187,151.545447,356.098892,150.390000,356.670000C148.390000,357.670000,144.540000,359.190000,142.800000,359.980000C141.710000,360.470000,141.800000,361.790000,142.880000,362.540000C143.960000,363.290000,146.740000,363.830000,150.010000,363.100000C151.790000,362.700000,154.110000,361.100000,155.580000,361.100000C157.050000,361.100000,159.790000,361.160000,160.870000,360.420000C161.950000,359.680000,161.520000,358.070000,161.220000,356.700000C160.920000,355.330000,160.470000,352.880000,159.970000,352.980000L159.970000,353.490000C159.330000,354.490000,156.040000,354.850000,154.640000,354.140000Z" fill="rgb(38,50,56)" stroke="none" stroke-width="1"/><path id="eqfo2x4dula130" d="M164.810000,296.900000C162.069350,296.048757,159.549715,294.604576,157.430000,292.670000C155.310285,290.735424,158.850000,295.340000,163.090000,297.820000L162.180000,316.530000Z" fill="rgb(38,50,56)" stroke="none" stroke-width="1"/><path id="eqfo2x4dula131" d="M163.860000,251.140000C163.570000,250.420000,162.520000,250.140000,161.550000,250.070000C161.142513,250.061215,160.749670,250.222007,160.465283,250.513977C160.180897,250.805948,160.030497,251.202886,160.050000,251.610000C160.063465,252.431180,160.233153,253.242289,160.550000,254C161.289484,253.834349,162.062269,253.904284,162.760000,254.200000C163.366959,253.283075,163.744255,252.233505,163.860000,251.140000Z" fill="rgb(38,50,56)" stroke="none" stroke-width="1"/><path id="eqfo2x4dula132" d="M160.550000,254C160.550000,254,158.710000,269.130000,158.760000,270C158.810000,270.870000,160.690000,276.130000,161.650000,276.130000C162.610000,276.130000,164.490000,271.420000,164.540000,270.680000C164.590000,269.940000,162.760000,254.180000,162.760000,254.180000C162.139608,253.648788,161.248177,253.576183,160.550000,254Z" fill="rgb(38,50,56)" stroke="none" stroke-width="1"/><path id="eqfo2x4dula133" d="M172.900000,335.850000L169,333.600000C168.581149,333.330947,168.317018,332.877087,168.290000,332.380000L168.290000,310.320000C168.320235,309.821210,168.583200,309.365651,169,309.090000L195.390000,293.860000C195.831990,293.630525,196.358010,293.630525,196.800000,293.860000L200.680000,296.100000C201.098851,296.369053,201.362982,296.822913,201.390000,297.320000L201.390000,319.390000C201.359797,319.886129,201.096444,320.338651,200.680000,320.610000L174.290000,335.850000C173.851204,336.063252,173.338796,336.063252,172.900000,335.850000Z" fill="rgb(39,222,191)" stroke="none" stroke-width="1"/><path id="eqfo2x4dula134" d="M168.310000,310.320000C168.317729,310.072341,168.390126,309.831015,168.520000,309.620000L174.270000,312.940000L174.270000,335.870000C173.836429,336.075398,173.333571,336.075398,172.900000,335.870000L169,333.600000C168.581149,333.330947,168.317018,332.877087,168.290000,332.380000Z" fill="rgb(242,143,143)" stroke="none" stroke-width="1"/><path id="eqfo2x4dula135" d="M168.310000,310.320000C168.317729,310.072341,168.390126,309.831015,168.520000,309.620000L174.270000,312.940000L174.270000,335.870000C173.836429,336.075398,173.333571,336.075398,172.900000,335.870000L169,333.600000C168.581149,333.330947,168.317018,332.877087,168.290000,332.380000Z" fill="rgb(39,222,191)" stroke="none" stroke-width="1"/><path id="eqfo2x4dula136" d="M168.310000,310.320000C168.317729,310.072341,168.390126,309.831015,168.520000,309.620000L174.270000,312.940000L174.270000,335.870000C173.836429,336.075398,173.333571,336.075398,172.900000,335.870000L169,333.600000C168.581149,333.330947,168.317018,332.877087,168.290000,332.380000Z" opacity="0.2" fill="rgb(0,0,0)" stroke="none" stroke-width="1"/><path id="eqfo2x4dula137" d="M174.310000,312.150000L200.700000,296.910000C201.090000,296.690000,201.410000,296.910000,201.410000,297.320000L201.410000,319.390000C201.379797,319.886129,201.116444,320.338651,200.700000,320.610000L174.310000,335.850000C173.920000,336.070000,173.610000,335.850000,173.610000,335.440000L173.610000,313.370000C173.636359,312.875248,173.896170,312.422433,174.310000,312.150000Z" fill="rgb(39,222,191)" stroke="none" stroke-width="1"/><path id="eqfo2x4dula138" d="M172,310.810000C171.583200,311.085651,171.320235,311.541210,171.290000,312.040000L171.290000,334.920000L170.630000,334.530000L170.630000,311.650000C170.656359,311.155248,170.916170,310.702433,171.330000,310.430000L198.430000,294.790000L199.090000,295.170000Z" fill="rgb(39,222,191)" stroke="none" stroke-width="1"/><path id="eqfo2x4dula139" d="M172,310.810000C171.583200,311.085651,171.320235,311.541210,171.290000,312.040000L171.290000,334.920000L170.630000,334.530000L170.630000,311.650000C170.656359,311.155248,170.916170,310.702433,171.330000,310.430000L198.430000,294.790000L199.090000,295.170000Z" opacity="0.3" fill="rgb(0,0,0)" stroke="none" stroke-width="1"/><path id="eqfo2x4dula140" d="M171.330000,310.430000L198.390000,294.810000L199.070000,295.180000L172,310.810000C171.790073,310.940172,171.617733,311.122853,171.500000,311.340000L170.840000,310.960000L170.840000,310.960000C170.954200,310.743541,171.123149,310.560801,171.330000,310.430000Z" fill="rgb(39,222,191)" stroke="none" stroke-width="1"/><path id="eqfo2x4dula141" d="M171.330000,310.430000L198.390000,294.810000L199.070000,295.180000L172,310.810000C171.790073,310.940172,171.617733,311.122853,171.500000,311.340000L170.840000,310.960000L170.840000,310.960000C170.954200,310.743541,171.123149,310.560801,171.330000,310.430000Z" opacity="0.2" fill="rgb(0,0,0)" stroke="none" stroke-width="1"/><path id="eqfo2x4dula142" d="M175.440000,306.920000L175.900000,306.650000C176.121679,306.530883,176.388321,306.530883,176.610000,306.650000L178.400000,307.650000L178.700000,307.560000L178.700000,308L178.700000,308C178.692787,308.092391,178.635058,308.173212,178.550000,308.210000L177.930000,308.560000C177.711882,308.679167,177.448118,308.679167,177.230000,308.560000L175.280000,307.440000C175.201742,307.402200,175.148731,307.326469,175.140000,307.240000L175.140000,307.240000L175.140000,306.860000Z" fill="rgb(39,222,191)" stroke="none" stroke-width="1"/><path id="eqfo2x4dula143" d="M175.440000,306.920000L175.900000,306.650000C176.121679,306.530883,176.388321,306.530883,176.610000,306.650000L178.400000,307.650000L178.700000,307.560000L178.700000,308L178.700000,308C178.692787,308.092391,178.635058,308.173212,178.550000,308.210000L177.930000,308.560000C177.711882,308.679167,177.448118,308.679167,177.230000,308.560000L175.280000,307.440000C175.201742,307.402200,175.148731,307.326469,175.140000,307.240000L175.140000,307.240000L175.140000,306.860000Z" opacity="0.2" fill="rgb(0,0,0)" stroke="none" stroke-width="1"/><path id="eqfo2x4dula144" d="M175.280000,306.620000L175.900000,306.260000C176.124059,306.150750,176.385941,306.150750,176.610000,306.260000L178.550000,307.390000C178.636963,307.417842,178.695969,307.498688,178.695969,307.590000C178.695969,307.681312,178.636963,307.762158,178.550000,307.790000L177.930000,308.150000C177.709768,308.260580,177.450232,308.260580,177.230000,308.150000L175.280000,307C175.212442,306.960566,175.170905,306.888225,175.170905,306.810000C175.170905,306.731775,175.212442,306.659434,175.280000,306.620000Z" fill="rgb(39,222,191)" stroke="none" stroke-width="1"/><path id="eqfo2x4dula145" d="M190.440000,298.920000L190.900000,298.650000C191.121679,298.530883,191.388321,298.530883,191.610000,298.650000L193.400000,299.650000L193.700000,299.560000L193.700000,300L193.700000,300C193.692787,300.092391,193.635058,300.173212,193.550000,300.210000L192.930000,300.560000C192.711882,300.679167,192.448118,300.679167,192.230000,300.560000L190.280000,299.440000C190.201742,299.402200,190.148731,299.326469,190.140000,299.240000L190.140000,299.240000L190.140000,298.860000Z" fill="rgb(39,222,191)" stroke="none" stroke-width="1"/><path id="eqfo2x4dula146" d="M190.440000,298.920000L190.900000,298.650000C191.121679,298.530883,191.388321,298.530883,191.610000,298.650000L193.400000,299.650000L193.700000,299.560000L193.700000,300L193.700000,300C193.692787,300.092391,193.635058,300.173212,193.550000,300.210000L192.930000,300.560000C192.711882,300.679167,192.448118,300.679167,192.230000,300.560000L190.280000,299.440000C190.201742,299.402200,190.148731,299.326469,190.140000,299.240000L190.140000,299.240000L190.140000,298.860000Z" opacity="0.2" fill="rgb(0,0,0)" stroke="none" stroke-width="1"/><path id="eqfo2x4dula147" d="M186.180000,297.650000L186.180000,300L187.510000,300.760000L187.510000,297.270000C187.510000,297.080000,187.380000,297.010000,187.220000,297.100000Z" fill="rgb(39,222,191)" stroke="none" stroke-width="1"/><path id="eqfo2x4dula148" d="M190.280000,298.620000L190.900000,298.260000C191.124059,298.150750,191.385941,298.150750,191.610000,298.260000L193.550000,299.390000C193.636963,299.417842,193.695969,299.498688,193.695969,299.590000C193.695969,299.681312,193.636963,299.762158,193.550000,299.790000L192.930000,300.150000C192.709768,300.260580,192.450232,300.260580,192.230000,300.150000L190.280000,299C190.212442,298.960566,190.170905,298.888225,190.170905,298.810000C190.170905,298.731775,190.212442,298.659434,190.280000,298.620000Z" fill="rgb(39,222,191)" stroke="none" stroke-width="1"/><path id="eqfo2x4dula149" d="M186.180000,297.650000L186.180000,300L187.510000,300.760000L187.510000,297.270000C187.510000,297.080000,187.380000,297.010000,187.220000,297.100000Z" opacity="0.3" fill="rgb(0,0,0)" stroke="none" stroke-width="1"/><path id="eqfo2x4dula150" d="M179.240000,300.080000L179.240000,304.350000L180.240000,304.920000L180.900000,304.530000L180.900000,301C180.907623,300.800716,181.012179,300.617742,181.180000,300.510000L186.180000,297.610000L187.180000,297.010000C187.340000,296.920000,187.470000,297.010000,187.470000,297.180000L187.470000,300.670000L188.130000,300.290000L188.130000,296C188.099586,295.824333,187.998354,295.668869,187.850000,295.570000L187.430000,295.330000C187.250488,295.240720,187.039512,295.240720,186.860000,295.330000L179.480000,299.590000C179.330897,299.709343,179.242882,299.889039,179.240000,300.080000Z" fill="rgb(39,222,191)" stroke="none" stroke-width="1"/><path id="eqfo2x4dula151" d="M180.230000,300.650000L180.230000,304.920000L180.890000,304.530000L180.890000,301C180.897623,300.800716,181.002179,300.617742,181.170000,300.510000L186.170000,297.610000L187.170000,297.010000C187.330000,296.920000,187.460000,297.010000,187.460000,297.180000L187.460000,300.670000L188.120000,300.290000L188.120000,296C188.120000,295.860000,187.970000,295.820000,187.840000,295.890000L180.460000,300.150000C180.310738,300.272596,180.225964,300.456887,180.230000,300.650000Z" fill="rgb(39,222,191)" stroke="none" stroke-width="1"/><path id="eqfo2x4dula152" d="M180.230000,300.650000L180.230000,304.920000L180.890000,304.530000L180.890000,301C180.897623,300.800716,181.002179,300.617742,181.170000,300.510000L186.170000,297.610000L187.170000,297.010000C187.330000,296.920000,187.460000,297.010000,187.460000,297.180000L187.460000,300.670000L188.120000,300.290000L188.120000,296C188.120000,295.860000,187.970000,295.820000,187.840000,295.890000L180.460000,300.150000C180.310738,300.272596,180.225964,300.456887,180.230000,300.650000Z" opacity="0.2" fill="rgb(0,0,0)" stroke="none" stroke-width="1"/><path id="eqfo2x4dula153" d="M185.940000,290.080000C185.940000,290.080000,185.940000,291.400000,185.940000,291.960000C186.300305,293.696591,186.557422,295.453000,186.710000,297.220000C186.840000,297.840000,185.980000,299.070000,184.560000,299.740000C183.950000,300.020000,182.890000,301.010000,182.410000,301.060000C181.970564,300.962094,181.551160,300.789597,181.170000,300.550000L181.770000,300.200000C181.770000,300.200000,182.600000,298.990000,181.690000,298.340000L179.900000,299.340000C179.797929,298.798098,179.797929,298.241902,179.900000,297.700000C180.060000,296.800000,180.080000,295.640000,180.230000,294.700000C180.409940,293.956878,180.728885,293.254521,181.170000,292.630000L180.870000,289.630000Z" fill="rgb(255,168,167)" stroke="none" stroke-width="1"/><path id="eqfo2x4dula154" d="M174.770000,247.850000C176.343174,248.409153,177.843831,249.154445,179.240000,250.070000C180.360000,250.960000,186.830000,269.520000,187.080000,271.190000C187.330000,272.860000,186.380000,290.440000,186.380000,290.440000C184.621451,291.586622,182.391508,291.730734,180.500000,290.820000L179.500000,273.190000L173.920000,258.690000C173.920000,258.690000,171.790000,252.620000,174.770000,247.850000Z" fill="rgb(55,71,79)" stroke="none" stroke-width="1"/></g></g></g></svg>